<?xml version="1.0" encoding="UTF-8"?><svg xmlns="http://www.w3.org/2000/svg" viewBox="0 0 515.84 584.7"><defs><style>.d{fill:#009245;}.e{fill:#fff;}.f{fill:#8cc63f;}.g{fill:#c1272d;}.h{fill:#006837;}.i{fill:#2e3192;}.j{fill:#f7931e;}</style></defs><g id="a"/><g id="b"><g id="c"><g><path class="d" d="M175.24,149.25c-2.5-22.27-9.18-41.48-20.45-58.9-3.42-5.28-2.19-7.1,2.62-9.83,11.81-6.7,23.47-13.72,34.87-21.1,4.85-3.14,6.74-3.04,9.42,2.69,15.08,32.14,52.04,45.27,83.43,29.94,13.73-6.71,23.74-17.24,29.7-31.32,1.77-4.17,3.3-4.62,7.15-2.2,12.63,7.95,25.43,15.63,38.33,23.13,3.54,2.05,3.98,3.49,1.68,7.02-11.68,18.01-18.8,37.72-21.4,60.25,11.15-7.63,19.65-16.53,27.4-26.21,5.59-6.98,10.46-14.45,14.38-22.48,1.63-3.33,3.11-4.01,6.51-2.07,12.95,7.41,25.92,14.83,39.21,21.6,5.44,2.77,3.7,4.86,1.27,8.37-18.26,26.45-15.02,60.14,7.92,81.52,13.64,12.71,30.03,18.05,48.52,16.26,5.44-.53,6.88,1.01,6.64,6.37-.64,14.02-1,28.07-.87,42.11,.05,5.65-2.07,6.51-7.06,6.29-20.77-.92-40.75,2.73-60.77,11.47,6.84,4.05,13.66,5.7,20.35,7.53,13.42,3.67,27.15,5.28,41.03,4.35,5.18-.35,6.42,1.23,6.41,6.17-.03,13.81,.22,27.64,.9,41.44,.29,5.85-1.09,7.52-7.29,7.15-27.63-1.64-48.72,9.61-61.13,34.51-10.86,21.78-8.34,43.27,5.37,63.25,2.89,4.21,3.19,6.15-1.82,8.72-12.87,6.62-25.53,13.67-38.06,20.91-3.87,2.24-5.48,1.68-7.47-2.21-9.03-17.72-21.5-32.71-37.07-45.08-1.14-.9-2.05-2.46-4.27-2.02,2.41,21.15,9.38,40.66,20.87,58.51,2.49,3.86,2.4,5.64-1.81,8.05-12.57,7.18-24.98,14.66-37.18,22.45-4.39,2.81-5.88,2.14-8.07-2.51-16.26-34.44-55.42-47.08-87.79-28.52-11.78,6.76-20.32,16.58-25.7,29.01-1.67,3.87-3.05,5.02-7.17,2.4-12.59-8-25.41-15.65-38.31-23.17-3.52-2.05-4.01-3.49-1.7-7.05,11.07-17.05,18-35.73,20.86-55.89,.15-1.05,.19-2.11,.37-4.22-8.42,5.55-14.82,11.92-20.94,18.58-8.03,8.75-14.94,18.34-20.11,29.02-2.27,4.69-4.31,4.72-8.48,2.29-12.13-7.06-24.4-13.89-36.88-20.29-5.05-2.59-5.39-4.41-2.17-9.12,21.04-30.7,12.82-70.24-18.24-89.09-11.82-7.17-24.73-10.04-38.44-8.56-4.82,.52-6.74-.14-6.47-5.66,.69-14.47,.94-28.96,.94-43.45,0-4.86,1.63-5.8,6.22-5.61,22.45,.89,46.07-3.74,61.3-11.86-2.79-1.22-4.99-2.33-7.29-3.17-17.37-6.35-35.31-9.36-53.79-8.3-5.09,.29-6.49-1.28-6.48-6.23,.03-13.59-.14-27.2-.89-40.77-.35-6.35,1-8.22,7.84-7.81,33.31,1.99,60.16-18.8,66.01-50.78,3.12-17.05-.59-32.91-10.78-46.86-3.56-4.88-2.55-6.6,2.31-9.11,12.46-6.45,24.76-13.22,36.87-20.3,4.32-2.52,6.21-2.08,8.48,2.44,8.19,16.35,19.69,30.17,33.59,42,2,1.7,4.13,3.26,7.53,5.94Zm137.78,269.59c-2.59,.48-4.67-1.12-6.92-1.91-38.12-13.33-75.29-11.13-111.57,6.63-2.79,1.37-4.72,2.88-4.93,6.33-1.37,22.1-7.16,43-17.63,62.54-1.33,2.49-1.02,3.91,1.49,5.31,4.67,2.6,9.35,5.24,13.7,8.32,4.09,2.9,6.2,2.54,9.39-1.84,27.82-38.31,82.6-42.42,115.32-9.22,4.32,4.39,6.34,13.22,12.74,12.71,5.76-.46,11-6.28,16.7-9.3,3.64-1.92,3.74-3.6,1.96-7.19-23.47-47.57-23.61-95.2,.47-142.6,8.99-17.69,21.35-32.83,36.57-45.59,2.82-2.36,10.8-.52,13.65,3.78,2.5,3.78-2.29,4.41-4,5.89-30.31,26.26-47.15,59.22-50.11,99.28-.31,4.22,.64,6.94,4.4,9.39,13.96,9.07,25.59,20.69,35.88,33.74,3.68,4.66,5.82,13.05,10.73,13.47,5.21,.44,10.78-5.44,16.46-7.94,5.05-2.23,5.35-4.62,3.17-9.58-19.13-43.41,5.18-92.72,50.91-104.43,5.56-1.42,13.6,1.29,16.22-4.35,2.29-4.93,.06-11.83,.43-17.82,.3-4.9-1.29-6.24-6.25-6.59-71.9-5.13-127.38-52.76-142.79-121.85-1.42-6.36-.29-9.49,5.58-12.57,5.55-2.91,6.1-1.53,7.03,3.78,7.02,40.02,27.57,71.37,61.16,94.26,3.37,2.3,5.97,2.57,9.65,.71,15.05-7.59,31.11-11.96,47.75-14.44,5.8-.86,13.85,1.7,16.86-2.93,2.79-4.3,.55-11.68,1.19-17.64,.58-5.38-1.08-7.09-6.6-7.69-25.93-2.85-45.65-15.83-58.28-38.61-12.25-22.11-12.69-45.09-2.48-68.16,1.6-3.62,2.19-5.87-2.1-7.8-4.46-2-8.77-4.42-12.86-7.1-4.07-2.67-6.2-2.41-9.24,2.08-33.11,48.73-79.36,71.96-138.18,69.88-14.55-.52-28.71-3.66-42.42-8.66-3.47-1.26-5.95-9.29-3.62-13.78,2.04-3.95,5.03-.25,7.17,.51,37.9,13.3,74.84,11.09,111.02-6.24,3.56-1.71,5.46-3.8,5.73-7.96,1.39-21.41,7.1-41.66,17.18-60.62,1.54-2.9,1.55-4.63-1.66-6.3-4.34-2.26-8.59-4.78-12.57-7.61-4.35-3.1-6.75-3.16-10.41,1.86-27.83,38.17-82.38,41.83-115.34,8.38-4.19-4.25-6.15-12.78-12.31-12.34-5.55,.4-10.61,6.08-16.12,8.97-4.1,2.15-4.35,4.16-2.26,8.27,31.91,62.73,18.04,137.53-33.76,184.65-4.66,4.24-8.13,5.42-13.66,1.66-4.33-2.94-5.43-3.98-.68-7.94,31.2-25.99,48.28-59.37,51.22-99.97,.31-4.28-.87-6.87-4.54-9.32-17.64-11.81-32.12-26.8-43.33-44.86-1.74-2.8-3.11-3.73-6.21-1.72-4.29,2.78-8.77,5.38-13.45,7.41-5.06,2.19-5.31,4.57-3.1,9.53,19.32,43.4-5.72,93.67-51.6,104.52-5.32,1.26-13.01-.86-15.46,3.6-2.43,4.44-.12,11.31-.55,17.07-.43,5.83,1.37,7.81,7.53,8.26,69.21,5,123.28,50.06,140.25,117.04,3.98,15.7,4.74,11.31-8.49,19.16-.3,.18-.8,.02-1.55,.02-.38-1.92-.8-3.85-1.15-5.79-7.17-39.75-27.46-70.98-60.68-93.91-3.67-2.53-6.61-3.01-10.86-.85-14.61,7.44-30.28,11.65-46.48,14.09-6.04,.91-14.45-1.54-17.54,3.02-2.95,4.34-.68,12.08-1.18,18.29-.38,4.68,.79,6.46,5.94,6.95,47.57,4.5,78.91,51.29,65.38,96.97-1.55,5.23-7.1,10.92-4.62,15.15,2.54,4.33,9.77,5.69,14.42,9.06,5.19,3.76,7.72,2.63,11.18-2.61,37.35-56.73,106.81-82.09,171.6-62.65,14.6,4.38,12.11,.9,11.85,17.13,0,.2-.2,.39-.33,.64Z"/><path class="f" d="M257.63,0c20.13-.11,36.72,16.24,36.78,36.26,.06,20.02-16.33,36.39-36.54,36.48-19.73,.08-36.15-16.09-36.44-35.89C221.14,16.91,237.64,.11,257.63,0Zm22.74,36.34c-.01-12.5-10.08-22.58-22.51-22.56-12.45,.02-22.48,10.17-22.4,22.66,.08,12.61,9.96,22.49,22.51,22.48,12.5,0,22.41-10,22.4-22.58Z"/><path class="i" d="M36.14,128.15c20.11-.1,36.26,15.73,36.49,35.75,.23,20.3-16,36.81-36.18,36.81C16.02,200.7-.04,184.63,0,164.21c.04-20.05,15.99-35.97,36.14-36.07Zm-22.41,36.09c-.07,12.39,9.92,22.63,22.23,22.78,12.29,.15,22.65-9.85,22.93-22.14,.29-12.57-9.95-23.03-22.61-23.09-12.28-.06-22.47,10.09-22.55,22.44Z"/><path class="e" d="M.04,419.53c.43-19.99,16.85-35.88,36.75-35.55,20.22,.33,36.32,17.04,35.84,37.21-.48,20.29-17.18,36.09-37.5,35.47C15.09,456.04-.4,439.66,.04,419.53Zm36.28,23.34c12.39-.04,22.51-10.07,22.58-22.4,.08-12.48-10.47-22.91-23.03-22.77-12.23,.13-22.19,10.43-22.12,22.87,.07,12.44,10.09,22.34,22.57,22.3Z"/><path class="g" d="M258.31,512.06c19.75,.04,36.11,16.52,36.08,36.37-.03,20.11-16.61,36.43-36.87,36.27-19.91-.15-36.1-16.48-36.09-36.38,.01-20.07,16.52-36.3,36.87-36.26Zm22.03,36.07c-.13-12.54-10.16-22.45-22.66-22.36-12.42,.08-22.38,10.33-22.19,22.82,.19,12.62,10.22,22.51,22.67,22.37,12.5-.14,22.31-10.23,22.18-22.83Z"/><path class="h" d="M480.13,128.15c20.02,.19,35.83,16.36,35.7,36.51-.13,20.27-16.55,36.33-36.91,36.09-19.81-.23-35.82-16.63-35.73-36.6,.09-20.28,16.42-36.19,36.94-35.99Zm21.95,36.39c.09-12.38-9.86-22.57-22.21-22.75-12.27-.17-22.63,9.81-22.96,22.12-.33,12.4,10.2,23.15,22.66,23.12,12.38-.02,22.41-10.05,22.51-22.49Z"/><path class="j" d="M515.84,420.18c.03,20.12-16.04,36.53-35.79,36.53-20.55,0-36.78-15.92-36.87-36.17-.1-20.16,16.25-36.53,36.53-36.57,19.83-.05,36.1,16.26,36.13,36.22Zm-13.76,.25c.02-12.42-9.94-22.58-22.3-22.76-12.14-.17-22.63,10.05-22.87,22.28-.25,12.63,9.99,22.96,22.72,22.93,12.45-.03,22.42-10.01,22.44-22.44Z"/></g></g></g></svg>