<svg width="32" height="29" viewBox="0 0 32 29" fill="none" xmlns="http://www.w3.org/2000/svg">
<path d="M31.5828 5.28675L20.6606 16.4597C19.4428 17.7024 17.7929 18.4003 16.0727 18.4003C14.3526 18.4003 12.7027 17.7024 11.4848 16.4597L0.562614 5.28675C0.544449 5.49646 0.50293 5.68626 0.50293 5.89465V21.8219C0.50499 23.5813 1.18915 25.2681 2.40533 26.5122C3.62151 27.7563 5.27041 28.4562 6.99035 28.4583H25.1551C26.8751 28.4562 28.524 27.7563 29.7401 26.5122C30.9563 25.2681 31.6405 23.5813 31.6425 21.8219V5.89465C31.6425 5.68626 31.601 5.49646 31.5828 5.28675Z" fill="white"/>
<path d="M18.3358 14.7294L29.5666 3.36973C29.0225 2.45737 28.2552 1.7022 27.3386 1.17705C26.422 0.651902 25.387 0.374493 24.3336 0.371582H7.11988C6.06643 0.374493 5.03149 0.651902 4.11489 1.17705C3.19829 1.7022 2.43096 2.45737 1.88691 3.36973L13.1176 14.7294C13.8106 15.4274 14.7487 15.8193 15.7267 15.8193C16.7047 15.8193 17.6429 15.4274 18.3358 14.7294Z" fill="white"/>
</svg>
