<?xml version="1.0" encoding="UTF-8"?>
<svg xmlns="http://www.w3.org/2000/svg" version="1.1" viewBox="0 0 930 351">
  <defs>
    <style>
      .cls-1 {
        fill: #db9790;
      }

      .cls-1, .cls-2, .cls-3, .cls-4, .cls-5, .cls-6, .cls-7, .cls-8, .cls-9, .cls-10, .cls-11, .cls-12, .cls-13, .cls-14, .cls-15, .cls-16, .cls-17, .cls-18, .cls-19, .cls-20, .cls-21, .cls-22, .cls-23, .cls-24, .cls-25, .cls-26, .cls-27, .cls-28, .cls-29, .cls-30, .cls-31, .cls-32, .cls-33, .cls-34, .cls-35, .cls-36, .cls-37, .cls-38, .cls-39, .cls-40, .cls-41, .cls-42, .cls-43, .cls-44, .cls-45, .cls-46, .cls-47, .cls-48, .cls-49, .cls-50, .cls-51, .cls-52, .cls-53, .cls-54, .cls-55, .cls-56, .cls-57, .cls-58, .cls-59, .cls-60, .cls-61, .cls-62, .cls-63, .cls-64, .cls-65, .cls-66, .cls-67, .cls-68, .cls-69, .cls-70, .cls-71, .cls-72 {
        fill-rule: evenodd;
      }

      .cls-2 {
        fill: #e6a49e;
      }

      .cls-3 {
        fill: #f1faf6;
      }

      .cls-4 {
        fill: #0e9041;
      }

      .cls-5 {
        fill: #bf473c;
      }

      .cls-6 {
        fill: #d6766e;
      }

      .cls-7 {
        fill: #d12f24;
      }

      .cls-8, .cls-73, .cls-22, .cls-23, .cls-24, .cls-26, .cls-29, .cls-32, .cls-33, .cls-37, .cls-48, .cls-58, .cls-65, .cls-68 {
        isolation: isolate;
      }

      .cls-8, .cls-73, .cls-58 {
        opacity: 1;
      }

      .cls-8, .cls-22, .cls-23, .cls-24, .cls-29, .cls-33, .cls-48, .cls-68 {
        fill: #06913f;
      }

      .cls-9 {
        fill: #109142;
      }

      .cls-10 {
        fill: #d06960;
      }

      .cls-11 {
        fill: #f3faf7;
      }

      .cls-12 {
        fill: #4e946a;
      }

      .cls-13 {
        fill: #3b985f;
      }

      .cls-14 {
        fill: #fcfdfc;
      }

      .cls-15 {
        fill: #cd6f69;
      }

      .cls-16 {
        fill: #8ec5a6;
      }

      .cls-17 {
        fill: #d6281e;
      }

      .cls-18 {
        fill: #b1e6cf;
      }

      .cls-19 {
        fill: #26924f;
      }

      .cls-20 {
        fill: #f2faf6;
      }

      .cls-21 {
        fill: #1f9048;
      }

      .cls-22 {
        opacity: .9;
      }

      .cls-23 {
        opacity: .9;
      }

      .cls-24 {
        opacity: .9;
      }

      .cls-25 {
        fill: #9dcdb1;
      }

      .cls-26 {
        fill: #03913f;
        opacity: 1;
      }

      .cls-27 {
        fill: #da908a;
      }

      .cls-28 {
        fill: #ecf9f3;
      }

      .cls-29 {
        opacity: .9;
      }

      .cls-30 {
        fill: #bc5c55;
      }

      .cls-31 {
        fill: #dff5ec;
      }

      .cls-32 {
        fill: #cee6d9;
        opacity: 0;
      }

      .cls-33 {
        opacity: .9;
      }

      .cls-34 {
        fill: #e16b63;
      }

      .cls-35 {
        fill: #e99990;
      }

      .cls-36 {
        fill: #0c9141;
      }

      .cls-37 {
        fill: #f7f4f2;
        opacity: 1;
      }

      .cls-38 {
        fill: #f8ecea;
      }

      .cls-39 {
        fill: #f8e8e5;
      }

      .cls-40 {
        fill: #f3f9f6;
      }

      .cls-41 {
        fill: #ebf7f1;
      }

      .cls-42 {
        fill: #78c79a;
      }

      .cls-43 {
        fill: #f2f9f6;
      }

      .cls-44 {
        fill: #79bf97;
      }

      .cls-45 {
        fill: #0e8d40;
      }

      .cls-46 {
        fill: #daf5ea;
      }

      .cls-47 {
        fill: #f9e9e7;
      }

      .cls-48 {
        opacity: .9;
      }

      .cls-49 {
        fill: #26914d;
      }

      .cls-50 {
        fill: #faeae8;
      }

      .cls-51 {
        fill: #d5291f;
      }

      .cls-52 {
        fill: #53a374;
      }

      .cls-53 {
        fill: #c85d56;
      }

      .cls-54 {
        fill: #f1f9f5;
      }

      .cls-55 {
        fill: #e7b3ae;
      }

      .cls-56 {
        fill: #f9eae8;
      }

      .cls-57 {
        fill: #e09491;
      }

      .cls-58 {
        fill: #db4a3c;
      }

      .cls-59 {
        fill: #139242;
      }

      .cls-60 {
        fill: #d9746a;
      }

      .cls-61 {
        fill: #74b48e;
      }

      .cls-62 {
        fill: #ce665c;
      }

      .cls-63 {
        fill: #138f43;
      }

      .cls-64 {
        fill: #de8078;
      }

      .cls-65 {
        fill: #fafbfa;
        opacity: 1;
      }

      .cls-66 {
        fill: #d5726a;
      }

      .cls-67 {
        fill: #e09a94;
      }

      .cls-68 {
        opacity: .9;
      }

      .cls-69 {
        fill: #f9eae7;
      }

      .cls-70 {
        fill: #f8ebea;
      }

      .cls-71 {
        fill: #f5fbf8;
      }

      .cls-72 {
        fill: #1d9149;
      }
    </style>
  </defs>
  <!-- Generator: Adobe Illustrator 28.6.0, SVG Export Plug-In . SVG Version: 1.2.0 Build 709)  -->
  <g>
    <g id="Layer_1">
      <path class="cls-11" d="M137.5,92.5c1.1,1.1,1.7,2.4,2,4-1.6,2.3-3.6,4.3-6,6-3.9-3.5-7.6-7.2-11-11-3.9-5-7.9-9.9-12-14.5,1.2-2.8,3.2-5,6-6.5,7,7.4,14,14.7,21,22Z"/>
      <path class="cls-8" d="M246.5,32.5c52.1,16.2,85.9,50.6,101.5,103,6,26,6,52,0,78-1.9,6.1-4,12.1-6.5,18-28.8,1.3-57.5,3.9-86,8-5.9.4-11.6,1.4-17,3-4.7.6-9.4,1.1-14,1.5,4.1-4.3,6.4-9.5,7-15.5,1.2-1.2,2.4-1.2,3.5,0,.5-1,1-2,1.5-3,1.7-2.1,2.7-4.6,3-7.5.3-.2.7-.3,1-.5.7,1.1,1.3,2.1,2,3,1.7.2,3.4,0,5-.5,2.8-3.1,5-6.6,6.5-10.5,1.1,1.5,2.6,2.2,4.5,2v-3h4c.2,2.1.7,4.1,1.5,6,1,1,2.2,1.2,3.5.5,1.4-3.5,2.8-7,4-10.5-.1-.9.2-1.5,1-2,2.5,2.5,5.1,4.5,8,6,17-48,4-85.2-39-111.5-41.5-17-76.6-8.5-105.5,25.5-2.6,4.9-5.6,9.6-9,14-2.6,7.6-4.8,15.2-6.5,23-1.9-2.4-2.4-5.1-1.5-8-.7-1.3-1.3-1.3-2,0-1-1.1-1.8-2.2-2.5-3.5.6-1.6.6-3.5,0-5.5-1.4,1.5-1.7,3-1,4.5-1.1,1.2-2.4,1.7-4,1.5.3-2,.7-4,1-6-2.4.2-4.4-.4-6-2,2.3,1.2,4.1.9,5.5-1,1.8-4.9,4.1-9.6,7-14,3.3-12.2-1.2-17.2-13.5-15-.8-3.5-2.8-6.2-6-8,2.3-.4,4.1.3,5.5,2,1.1-3.2,3.1-4.5,6-4,.5.9.6,1.9.5,3,2.7.2,5.4.7,8,1.5-7.9,2.1-7.9,3.9,0,5.5,2.3-1,4-2.7,5-5-2.5-.9-3.1-2.4-2-4.5-.9-.7-1.5-1.5-2-2.5,2-.7,4-1.3,6-2-1-1.6-1.6-3.2-2-5,3.4,3.8,7.1,7.5,11,11,2.4-1.7,4.4-3.7,6-6-.3-1.6-.9-2.9-2-4,1.7.2,3.4,0,5-.5-.5-.6-.9-1.2-1-2,1.1-1.4,1.9-2.9,2.5-4.5.7,1.3,1.3,1.3,2,0,.7,1.5,1.9,2.5,3.5,3,.8,1.6,1.3,3.2,1.5,5,.3-.3.7-.7,1-1,3.2,1,6.2,2.3,9,4,3.6-1.4,5.1-4,4.5-8-4.5-.4-8.5-1-12-2-1.6-2.8-2.3-5.8-2-9,1.1,2.7,2.5,5.4,4,8,4.4-2.3,9.1-4.2,14-5.5,3.8-2.5,7-5.7,9.5-9.5.5-3.7.7-7.3.5-11,.6.1,1.1.4,1.5,1,.3,2.3.7,4.7,1,7,.2-2.4,1.4-4.1,3.5-5,1.2.8,1.2,1.6,0,2.5,2.3,1.1,3.6,2.9,4,5.5-1.8.3-3.8,1.2-6,2.5-.7,1.4-.9,2.9-.5,4.5-1.1,1.5-2.6,2.2-4.5,2,0,1.4.3,2.8,1,4,4.2.5,8.2,1.5,12,3,6.9-1.2,13.7-1.2,20.5,0,3.1-2.1,6.1-2.1,9,0,.7-.9,1.5-1.5,2.5-2,1-10,1.3-20,1-30,3.1,1.1,6.1,1,9-.5.6-3.5,1.6-7.2,3-11-1.3-1.4-1-2.4,1-3-2.7-.7-2.7-1.3,0-2-1.9-.8-2.2-2-1-3.5,4.3,1.1,8.6,1.3,13,.5-.8-1.5-1.6-1.7-2.5-.5-.5-.6-.6-1.3-.5-2Z"/>
      <path class="cls-11" d="M291.5,70.5c4.1,1.5,6.5,4.5,7,9-.5,4.5-1.6,8.9-3.5,13-.7,2.3-.7,4.7,0,7,3.8-4.4,8.1-8.1,13-11,2.6,1.5,4.8,3.5,6.5,6-8.5,8-17.2,16-26,24-1.9-1.5-3.6-3.1-5-5-.3-1.2-.7-2.3-1-3.5,1-6.7,2.6-13.2,5-19.5-.5-1-1.2-1.2-2-.5-4.2,3.5-8.3,7-12.5,10.5-2.4-1.7-4.5-3.7-6.5-6,8.4-8,16.7-16,25-24Z"/>
      <path class="cls-43" d="M241.5,43.5c7.3,2.3,14.6,4.7,22,7-.7,2.3-1.3,4.7-2,7-4.1,0-7.9-1.1-11.5-3-2,1.1-2.7,2.8-2,5,3.5,1,6.7,2.7,9.5,5-1.5,1.3-2.1,3-2,5-4.2-.4-8.2-1.4-12-3-.5,2.3-.8,4.6-1,7,4.3.3,8,2,11,5-.6,2.3-2,4-4,5-6.3-2.2-12.6-4.2-19-6,3.4-11.4,7-22.7,11-34Z"/>
      <path class="cls-65" d="M271.5,204.5c-.9-1.1-1.3-2.4-1-4,2.4-11.2,3.5-22.5,3.5-34-2.6-2.5-5.8-3.5-9.5-3-2.5-11.2-7-21.6-13.5-31-2.9-3.2-6-6-9.5-8.5-15.1-7.4-31.1-9.6-48-6.5-8.2,2.9-15.2,7.6-21,14,.5.3,1,.7,1.5,1,16-6.9,32.8-10,50.5-9.5,2.2,1.5,4.3,3,6.5,4.5.9,2.6,1.6,5.3,2,8,4,5,8.4,9.7,13,14,2.3,2.9,3.4,6.3,3.5,10-14.4.9-28.9,2.2-43.5,4-4.8,2.7-9.6,5.5-14.5,8.5-9.4.1-18.7.8-28,2-1.6,1.1-2.6,2.6-3,4.5-1.8,1.8-3.8,3.1-6,4-1.1.1-1.8.8-2,2,.3,1.3.7,2.7,1,4,2.9,5.1,6.2,9.7,10,14,.4,3.6,1.4,6.9,3,10,1.2,11.3,5.9,21,14,29,3.8,2.3,7.1,5.1,10,8.5,2.7.7,5.3.7,8,0,7.1-1.8,13.7-4.4,20-8,0-1.4.3-2.9,1-4.5-1.5-1.3-2.2-3-2-5-2.6-.6-5.3-.9-8-1-4.3.4-8.7.8-13,1-1.4-.4-2.4-1.2-3-2.5,1.6-1.5,2.6-3.3,3-5.5,3.4-.2,6.4-1.2,9-3,0,1.3.5,2.3,1.5,3,.3-1.6.8-3.1,1.5-4.5,2.4-.3,4.6-1.1,6.5-2.5,1.3.3,2.3.9,3,2,4-3.1,7.6-2.4,11,2,1.4,2.2,2.2,4.5,2.5,7-.6,6-2.9,11.2-7,15.5,4.6-.4,9.3-.9,14-1.5,6,0,11.6-1,17-3,28.5-4.1,57.2-6.7,86-8-.8,3-2.2,5.7-4,8-12.3.9-24.7,1.6-37,2-4-.2-8,0-12,.5-1.2.2-2.2.7-3,1.5-62.4,5.8-123,19.2-182,40-2.3-1.7-4.3-3.7-6-6,27.2-9.6,54.8-17.8,83-24.5-43.3-16.1-63.3-47.3-60-93.5,1.7-7.8,3.9-15.4,6.5-23,3.4-4.4,6.4-9.1,9-14,28.9-34,64-42.5,105.5-25.5,43,26.3,56,63.5,39,111.5-2.9-1.5-5.5-3.5-8-6-.8.5-1.1,1.1-1,2Z"/>
      <g class="cls-73">
        <path class="cls-23" d="M424.5,99.5c17-2.3,29.5,4.1,37.5,19,4.9,24.6-5.1,38.2-30,41-24.9-2.8-34.9-16.4-30-41,4.7-9.8,12.2-16.2,22.5-19ZM427.5,112.5c9.6-1.6,16.1,2.1,19.5,11,2.5,14.8-3.7,22.3-18.5,22.5-11.6-5-15.1-13.5-10.5-25.5,2.8-3.3,5.9-5.9,9.5-8Z"/>
      </g>
      <g class="cls-73">
        <path class="cls-33" d="M471.5,99.5c10.3-.2,20.7,0,31,.5,16.4,1.6,21.2,9.8,14.5,24.5-1.6.9-3.1,1.9-4.5,3,10.6,6.1,12.8,14.4,6.5,25-3.1,2.5-6.6,4.3-10.5,5.5-12.7.5-25.3.7-38,.5-.3-19.7,0-39.4,1-59ZM486.5,111.5c4.9-.3,9.7,0,14.5,1,3.3,1.7,4.3,4.3,3,8-.9,1.2-2.1,2-3.5,2.5-4.7.5-9.3.7-14,.5v-12ZM486.5,134.5c5-.2,10,0,15,.5,4.6,1.1,6.1,3.9,4.5,8.5-.9,1.2-2.1,2-3.5,2.5-5.3.5-10.7.7-16,.5v-12Z"/>
      </g>
      <g class="cls-73">
        <path class="cls-48" d="M530.5,99.5h15v59h-16c-.3-19.7,0-39.4,1-59Z"/>
      </g>
      <g class="cls-73">
        <path class="cls-22" d="M557.5,99.5c12.8-.6,25.5.2,38,2.5,17.6,9.7,22.5,23.8,14.5,42.5-4.8,6.8-11.3,11.3-19.5,13.5-11.3.5-22.7.7-34,.5-.3-19.7,0-39.4,1-59ZM572.5,112.5c20.4-2.5,28.2,6.2,23.5,26-2,4-5.2,6.5-9.5,7.5-4.7.5-9.3.7-14,.5v-34Z"/>
      </g>
      <g class="cls-73">
        <path class="cls-48" d="M621.5,99.5h15v59h-16c-.3-19.7,0-39.4,1-59Z"/>
      </g>
      <g class="cls-73">
        <path class="cls-29" d="M647.5,99.5c15-.2,30,0,45,.5,1,4.1,1.3,8.2,1,12.5h-31v11h28v12h-28v11h32v12h-48c-.3-19.7,0-39.4,1-59Z"/>
      </g>
      <g class="cls-73">
        <path class="cls-68" d="M703.5,99.5c4.3-.2,8.7,0,13,.5,8.5,11.2,17,22.3,25.5,33.5.3-11,.7-22,1-33,4.7-1.3,9.3-1.3,14,0,.5,19.3.7,38.7.5,58-4.7.2-9.3,0-14-.5-8.5-11.2-17-22.3-25.5-33.5-.5,11.3-.7,22.7-.5,34h-15c-.3-19.7,0-39.4,1-59Z"/>
      </g>
      <g class="cls-73">
        <path class="cls-24" d="M764.5,99.5c16.3-.2,32.7,0,49,.5,1,4.1,1.3,8.2,1,12.5h-18v46h-15v-46h-18c-.3-4.4,0-8.8,1-13Z"/>
      </g>
      <path class="cls-43" d="M97.5,102.5c3.2,1.8,5.2,4.5,6,8,12.3-2.2,16.8,2.8,13.5,15-2.9,4.4-5.2,9.1-7,14-1.4,1.9-3.2,2.2-5.5,1-7.9-5.8-16.6-10.7-26-14.5-.5-.6-.9-1.2-1-2,3.3-7.6,7.6-14.6,13-21,2.3-.5,4.6-.7,7-.5Z"/>
      <path class="cls-49" d="M91.5,113.5c1.7-.2,3.4,0,5,.5.9,3.3,0,6.2-3,8.5-4.6-2-5.2-5-2-9Z"/>
      <path class="cls-21" d="M103.5,119.5h6c0,3.9-1.4,6.9-4.5,9-2.2-.3-3.7-1.5-4.5-3.5,1.1-1.8,2.1-3.6,3-5.5Z"/>
      <path class="cls-54" d="M329.5,123.5c3,9.1,5.7,18.4,8,28-2.6.6-5.3.9-8,1,0-2.4-.5-4.8-1.5-7-.7-.6-1.6-.9-2.5-1-7.9,2.2-15.7,4.5-23.5,7-2.4-2.8-3.5-6.1-3.5-10,7.9-1.3,15.6-3.3,23-6,2,0,3-1,3-3-.6-2.2-1.2-4.4-2-6.5,1.8-2.1,4.1-3,7-2.5Z"/>
      <path class="cls-26" d="M246.5,32.5c-.1.7,0,1.4.5,2,.9-1.2,1.7-1,2.5.5-4.4.8-8.7.6-13-.5-1.2,1.5-.9,2.7,1,3.5-2.7.7-2.7,1.3,0,2-2,.6-2.3,1.6-1,3-1.4,3.8-2.4,7.5-3,11-2.9,1.5-5.9,1.6-9,.5.3,10,0,20-1,30-1,.5-1.8,1.1-2.5,2-2.9-2.1-5.9-2.1-9,0-6.8-1.2-13.6-1.2-20.5,0-3.8-1.5-7.8-2.5-12-3-.7-1.2-1.1-2.6-1-4,1.9.2,3.4-.5,4.5-2-.4-1.6-.2-3.1.5-4.5,2.2-1.3,4.2-2.2,6-2.5-.4-2.6-1.7-4.4-4-5.5,1.2-.9,1.2-1.7,0-2.5-2.1.9-3.3,2.6-3.5,5-.3-2.3-.7-4.7-1-7-.4-.6-.9-.9-1.5-1-3-11.2-10.3-15.7-22-13.5-5.8,1.7-11.1,4.2-16,7.5,3.5,7.9,6.9,15.9,10,24-.3,3.2.4,6.2,2,9,3.5,1,7.5,1.6,12,2,.6,4-.9,6.6-4.5,8-2.8-1.7-5.8-3-9-4-.3.3-.7.7-1,1-.2-1.8-.7-3.4-1.5-5-1.6-.5-2.8-1.5-3.5-3-.7,1.3-1.3,1.3-2,0-.6,1.6-1.4,3.1-2.5,4.5.1.8.5,1.4,1,2-1.6.5-3.3.7-5,.5-7-7.3-14-14.6-21-22-2.8,1.5-4.8,3.7-6,6.5,4.1,4.6,8.1,9.5,12,14.5.4,1.8,1,3.4,2,5-2,.7-4,1.3-6,2,.5,1,1.1,1.8,2,2.5-1.1,2.1-.5,3.6,2,4.5-1,2.3-2.7,4-5,5-7.9-1.6-7.9-3.4,0-5.5-2.6-.8-5.3-1.3-8-1.5.1-1.1,0-2.1-.5-3-2.9-.5-4.9.8-6,4-1.4-1.7-3.2-2.4-5.5-2-2.4-.2-4.7,0-7,.5-5.4,6.4-9.7,13.4-13,21,.1.8.5,1.4,1,2,9.4,3.8,18.1,8.7,26,14.5,1.6,1.6,3.6,2.2,6,2-.3,2-.7,4-1,6,1.6.2,2.9-.3,4-1.5-.7-1.5-.4-3,1-4.5.6,2,.6,3.9,0,5.5.7,1.3,1.5,2.4,2.5,3.5.7-1.3,1.3-1.3,2,0-.9,2.9-.4,5.6,1.5,8-3.3,46.2,16.7,77.4,60,93.5-28.2,6.7-55.8,14.9-83,24.5-36.1-39.3-48.6-85.3-37.5-138,15.2-55.6,50.4-91.7,105.5-108.5,18.4-4.2,37.1-5.6,56-4,8.7.8,17,2.6,25,5.5Z"/>
      <path class="cls-46" d="M202.5,37.5h10v36h-10v-36Z"/>
      <path class="cls-43" d="M179.5,59.5c.2,3.7,0,7.3-.5,11-2.5,3.8-5.7,7-9.5,9.5-4.9,1.3-9.6,3.2-14,5.5-1.5-2.6-2.9-5.3-4-8-3.1-8.1-6.5-16.1-10-24,4.9-3.3,10.2-5.8,16-7.5,11.7-2.2,19,2.3,22,13.5Z"/>
      <path class="cls-63" d="M157.5,54.5c9.5,0,13.3,4.6,11.5,14-2.4,1.9-4.9,3.5-7.5,5-2.8-4.8-5.2-10-7-15.5.6-1.6,1.6-2.8,3-3.5Z"/>
      <path class="cls-14" d="M203.5,38.5h8v34h-8v-34Z"/>
      <path class="cls-13" d="M329.5,123.5c-2.9-.5-5.2.4-7,2.5.8,2.1,1.4,4.3,2,6.5,0,2-1,3-3,3-.2-4,0-8,.5-12,2.6-1.3,5.1-1.3,7.5,0Z"/>
      <path class="cls-12" d="M164.5,153.5c1.5,0,2.5.6,3,2-1.9,1.1-2.9.5-3-2Z"/>
      <path class="cls-71" d="M105.5,172.5c0,3.4-.3,6.7-1,10-2.1,5.3-5.8,9.1-11,11.5-19.2,1.8-26.7-6.7-22.5-25.5,6.4-10.3,15.3-12.8,26.5-7.5,4.1,2.9,6.7,6.7,8,11.5Z"/>
      <path class="cls-9" d="M270.5,200.5c-.8,1.8-1.5,3.8-2,6-.7,1.3-1.3,1.3-2,0-1.2-1.7-2.3-3.3-3.5-5-.4-1.7-.2-3.3.5-5-1.5-2.1-2.5-4.5-3-7,3,.3,5.3-.7,7-3,1.9-2.3,3.2-5,4-8,.3-2.4,0-4.8-1-7-1.2-.7-2.6-1.1-4-1-.5,3.3.5,6,3,8,.1,3.1-1.2,5.1-4,6-.8-1.6-2-2.9-3.5-4,.7,4.6-.3,5-3,1-1.7-4.3-3.2-8.7-4.5-13-3.9-.2-7.7.1-11.5,1-2.2,2.7-5,4.2-8.5,4.5-1.6,1.1-2.6,2.6-3,4.5-.9-.7-1.2-1.7-1-3-6.1-1.5-12.4-2.1-19-2-2.3.9-3.3,2.5-3,5,2.1,0,4.1.4,6,1,2.7-.2,5.4-.4,8-.5-3.4,1.9-7,3.1-11,3.5-3.7-.8-7.4-1.8-11-3-.8-1.1-1.8-1.2-3-.5-2,1.9-4.4,3.4-7,4.5-1.4-1-2.4-2.4-3-4-1,1.5-1.3,3.2-1,5-3.4.5-6.7,1.1-10,2-1.4-1.4-3-2.1-5-2v5c2-.3,3.3.3,4,2-2.8,1.6-5.8,2.9-9,4-1.9-2.3-3.2-5-4-8-.6-.9-.9-1.9-1-3,.9-.7,1.2-1.7,1-3-1.1-.7-1.7-1.7-2-3,.4-1.9,1.4-3.4,3-4.5,9.3-1.2,18.6-1.9,28-2,4.9-3,9.8-5.8,14.5-8.5,14.6-1.8,29.1-3.1,43.5-4,0-3.7-1.2-7.1-3.5-10-4.6-4.3-9-9-13-14-.4-2.7-1.1-5.4-2-8-2.2-1.5-4.3-3-6.5-4.5-17.7-.5-34.5,2.6-50.5,9.5-.5-.3-1-.7-1.5-1,5.8-6.4,12.8-11.1,21-14,16.9-3.1,32.9-.9,48,6.5,3.5,2.5,6.6,5.3,9.5,8.5,6.5,9.4,11,19.8,13.5,31,3.7-.5,6.9.5,9.5,3,0,11.5-1.1,22.8-3.5,34Z"/>
      <path class="cls-31" d="M214.5,165.5h4c-.4,3.9-2.4,4.9-6,3,.7-1,1.4-2,2-3Z"/>
      <path class="cls-61" d="M163.5,162.5c1.1.3,1.8,1.1,2,2.5-.8,3.3-2.8,5.1-6,5.5,1.8-2,3.1-4.7,4-8Z"/>
      <path class="cls-40" d="M265.5,184.5c.7.7,1.3,1.3,2,2-1.7,2.3-4,3.3-7,3,.5,2.5,1.5,4.9,3,7-.7,1.7-.9,3.3-.5,5,1.2,1.7,2.3,3.3,3.5,5,.7,1.3,1.3,1.3,2,0,.5-2.2,1.2-4.2,2-6-.3,1.6,0,2.9,1,4-1.2,3.5-2.6,7-4,10.5-1.3.7-2.5.5-3.5-.5-.8-1.9-1.3-3.9-1.5-6h-4v3c-1.9.2-3.4-.5-4.5-2-1.5,3.9-3.7,7.4-6.5,10.5-1.6.5-3.3.7-5,.5,1.2-4.2,2.1-8.6,2.5-13,2.6-4.6,3.6-9.6,3-15-2.3,1.7-5,2.7-8,3-.9-.5-1.8-1.2-2.5-2-.7,1.5-1.4,3-2,4.5-2.2.4-4.4.9-6.5,1.5-4.7-2.4-9.5-4.2-14.5-5.5-1.7-.7-3.3-.7-5,0,4.2,3.1,8.4,6.2,12.5,9.5.5,3.7.7,7.3.5,11-6.2-.5-12.2.2-18,2-.8.5-1.1,1.1-1,2-11.6.5-11.9-.6-1-3.5,5.2-3.2,8.8-7.5,11-13-1.1-2.7-2.8-2.7-5,0-7,1.2-13.8,2.7-20.5,4.5-1.4-.6-2.9-1-4.5-1,.1-1.1,0-2.1-.5-3-2.6,3.1-5.1,6.2-7.5,9.5-2.1.7-4.1.5-6-.5-1.9-1.7-2.3-3.7-1-6,6.1-2.4,12.1-4.7,18-7,1.9-4.1,3.4-8.4,4.5-13,1-1.2,2.2-2.2,3.5-3,3,3.2,6.4,6.1,10,8.5,7.7,1.3,15.1.3,22-3,1.1-2.1,2.6-4,4.5-5.5.5-1.3.7-2.6.5-4,.4-1.9,1.4-3.4,3-4.5,3.5-.3,6.3-1.8,8.5-4.5,3.8-.9,7.6-1.2,11.5-1,1.3,4.3,2.8,8.7,4.5,13,2.7,4,3.7,3.6,3-1,1.5,1.1,2.7,2.4,3.5,4Z"/>
      <path class="cls-28" d="M271.5,178.5h-2c-2.5-2-3.5-4.7-3-8,1.4,0,2.8.3,4,1,1,2.2,1.3,4.6,1,7Z"/>
      <path class="cls-4" d="M82.5,168.5c5.2-.8,9.7.5,13.5,4,1.2,10.2-3.3,14-13.5,11.5-6.5-5.1-6.5-10.2,0-15.5Z"/>
      <path class="cls-44" d="M105.5,172.5c.7,1.1,1,2.5,1,4,.1,2.4-.5,4.4-2,6,.7-3.3,1-6.6,1-10Z"/>
      <path class="cls-19" d="M231.5,178.5c.2,1.4,0,2.7-.5,4-1.9,1.5-3.4,3.4-4.5,5.5-6.9,3.3-14.3,4.3-22,3-3.6-2.4-7-5.3-10-8.5-1.3.8-2.5,1.8-3.5,3-1.1,4.6-2.6,8.9-4.5,13-5.9,2.3-11.9,4.6-18,7-1.3,2.3-.9,4.3,1,6-1,0-1.8-.2-2.5-1-.5.6-.6,1.3-.5,2-1.6-3.1-2.6-6.4-3-10v-1c8-.4,15.2-3.1,21.5-8,.7-1.3.5-2.5-.5-3.5-2.9.4-5.9.9-9,1.5-.7-1.7-2-2.3-4-2v-5c2-.1,3.6.6,5,2,3.3-.9,6.6-1.5,10-2-.3-1.8,0-3.5,1-5,.6,1.6,1.6,3,3,4,2.6-1.1,5-2.6,7-4.5,1.2-.7,2.2-.6,3,.5-1.7.3-2.2,1.3-1.5,3,2.1,2.3,4.2,4.5,6.5,6.5,8.5,1.1,16-1.1,22.5-6.5.7-2,.7-4,0-6-.4.9-1.1,1.6-2,2-3.5-3-7.3-3.7-11.5-2v3c-1.9-.6-3.9-1-6-1-.3-2.5.7-4.1,3-5,6.6-.1,12.9.5,19,2-.2,1.3,0,2.3,1,3Z"/>
      <path class="cls-41" d="M200.5,179.5c3.6,1.2,7.3,2.2,11,3,4-.4,7.6-1.6,11-3.5-2.6,0-5.3.2-8,.5v-3c4.2-1.7,8-1,11.5,2,.9-.4,1.6-1.1,2-2,.7,2,.7,4,0,6-6.5,5.4-14,7.6-22.5,6.5-2.3-2-4.4-4.2-6.5-6.5-.7-1.7-.2-2.7,1.5-3Z"/>
      <path class="cls-28" d="M162.5,181.5c.2,1.3,0,2.3-1,3-1.5.3-2.8,0-4-1,1.2-1.7,2.8-2.4,5-2Z"/>
      <path class="cls-42" d="M269.5,178.5h2c-.8,3-2.1,5.7-4,8-.7-.7-1.3-1.3-2-2,2.8-.9,4.1-2.9,4-6Z"/>
      <path class="cls-45" d="M154.5,182.5c1.1.3,1.8,1.1,2,2.5.2,2.3-.8,3.4-3,3.5-.3-1.3-.7-2.7-1-4,.2-1.2.9-1.9,2-2Z"/>
      <path class="cls-52" d="M160.5,178.5c.3,1.3.9,2.3,2,3-2.2-.4-3.8.3-5,2,1.2.9,2.5,1.3,4,1,0,1.1.4,2.1,1,3h-5c.9,5.1,2.9,9.8,6,14v1c-3.8-4.3-7.1-8.9-10-14,2.2,0,3.2-1.2,3-3.5-.2-1.4-.9-2.2-2-2.5,2.2-.9,4.2-2.2,6-4Z"/>
      <path class="cls-18" d="M178.5,186.5c4.9.3,4.8,1.3-.5,3-.5-.3-1-.7-1.5-1,.7-.7,1.4-1.3,2-2Z"/>
      <path class="cls-20" d="M162.5,187.5c.8,3,2.1,5.7,4,8,3.2-1.1,6.2-2.4,9-4,3.1-.6,6.1-1.1,9-1.5,1,1,1.2,2.2.5,3.5-6.3,4.9-13.5,7.6-21.5,8-3.1-4.2-5.1-8.9-6-14h5Z"/>
      <g class="cls-73">
        <path class="cls-22" d="M404.5,193.5c5.6-.3,11.1,0,16.5,1,5.3,10.9,10.3,21.9,15,33,5.6-10.8,10.9-21.8,16-33,5.4-1,10.9-1.3,16.5-1v59h-14c.2-11.3,0-22.7-.5-34-4.3,9.3-8.4,18.6-12.5,28-3.5,1.3-7,1.3-10.5,0-4.3-10-8.7-20-13-30-.5,12-.7,24-.5,36h-14c-.3-19.7,0-39.4,1-59Z"/>
      </g>
      <g class="cls-73">
        <path class="cls-23" d="M500.5,193.5c17-2.2,29.5,4.1,37.5,19,4.9,24.6-5.1,38.2-30,41-24.9-2.8-34.9-16.4-30-41,4.7-9.8,12.2-16.2,22.5-19ZM503.5,206.5c9.6-1.6,16.1,2.1,19.5,11,2.5,14.8-3.7,22.3-18.5,22.5-11.6-5-15.1-13.5-10.5-25.5,2.8-3.3,5.9-5.9,9.5-8Z"/>
      </g>
      <g class="cls-73">
        <path class="cls-22" d="M541.5,193.5c5.4-.3,10.7,0,16,1,4.9,13.6,9.8,27.3,14.5,41,5-13.7,10-27.3,15-41,5.1-1.3,10.3-1.3,15.5,0-7.5,19.2-15.2,38.4-23,57.5-5.4.8-10.7.7-16-.5-7.9-19.1-15.2-38.5-22-58Z"/>
      </g>
      <g class="cls-73">
        <path class="cls-29" d="M607.5,193.5c15-.2,30,0,45,.5,1,4.1,1.3,8.2,1,12.5h-31v11h28v12h-28v11h32v12h-48c-.3-19.7,0-39.4,1-59Z"/>
      </g>
      <g class="cls-73">
        <path class="cls-22" d="M664.5,193.5c5.6-.3,11.1,0,16.5,1,5.3,10.9,10.3,21.9,15,33,5.6-10.8,10.9-21.8,16-33,5.4-1,10.9-1.3,16.5-1v59h-14c.2-11.3,0-22.7-.5-34-4.3,9.3-8.4,18.6-12.5,28-3.5,1.3-7,1.3-10.5,0-4.3-10-8.7-20-13-30-.5,12-.7,24-.5,36h-14c-.3-19.7,0-39.4,1-59Z"/>
      </g>
      <g class="cls-73">
        <path class="cls-29" d="M739.5,193.5c15-.2,30,0,45,.5,1,4.1,1.3,8.2,1,12.5h-31v11h28v12h-28v11h32v12h-48c-.3-19.7,0-39.4,1-59Z"/>
      </g>
      <g class="cls-73">
        <path class="cls-68" d="M795.5,193.5c4.3-.2,8.7,0,13,.5,8.5,11.2,17,22.3,25.5,33.5.3-11,.7-22,1-33,4.7-1.3,9.3-1.3,14,0,.5,19.3.7,38.7.5,58-4.7.2-9.3,0-14-.5-8.5-11.2-17-22.3-25.5-33.5-.5,11.3-.7,22.7-.5,34h-15c-.3-19.7,0-39.4,1-59Z"/>
      </g>
      <g class="cls-73">
        <path class="cls-24" d="M856.5,193.5c16.3-.2,32.7,0,49,.5,1,4.1,1.3,8.2,1,12.5h-18v46h-15v-46h-18c-.3-4.4,0-8.8,1-13Z"/>
      </g>
      <path class="cls-36" d="M203.5,218.5c2.6.2,3.2,1.2,2,3-2.6,1.8-5.6,2.8-9,3-.4,2.2-1.4,4-3,5.5.6,1.3,1.6,2.1,3,2.5,4.4,1.2,8.7.9,13-1,2.7,0,5.4.4,8,1-.2,2,.5,3.7,2,5-.7,1.6-1,3.1-1,4.5-6.3,3.6-12.9,6.2-20,8-2.7.7-5.3.7-8,0-2.9-3.4-6.2-6.2-10-8.5-8.1-8-12.8-17.7-14-29-.1-.7,0-1.4.5-2,.7.8,1.5,1.1,2.5,1,1.9,1,3.9,1.2,6,.5,2.4-3.3,4.9-6.4,7.5-9.5.5.9.6,1.9.5,3,1.6,0,3.1.4,4.5,1,6.7-1.8,13.5-3.3,20.5-4.5,2.2-2.7,3.9-2.7,5,0-2.2,5.5-5.8,9.8-11,13-10.9,2.9-10.6,4,1,3.5Z"/>
      <path class="cls-72" d="M242.5,220.5c-.7-.9-1.3-1.9-2-3-.3.2-.7.3-1,.5-.3,2.9-1.3,5.4-3,7.5-.5,1-1,2-1.5,3-1.1-1.2-2.3-1.2-3.5,0-.3-2.5-1.1-4.8-2.5-7-3.4-4.4-7-5.1-11-2-.7-1.1-1.7-1.7-3-2-1.9,1.4-4.1,2.2-6.5,2.5-.7,1.4-1.2,2.9-1.5,4.5-1-.7-1.5-1.7-1.5-3,1.2-1.8.6-2.8-2-3-.1-.9.2-1.5,1-2,5.8-1.8,11.8-2.5,18-2,.2-3.7,0-7.3-.5-11-4.1-3.3-8.3-6.4-12.5-9.5,1.7-.7,3.3-.7,5,0,5,1.3,9.8,3.1,14.5,5.5,2.1-.6,4.3-1.1,6.5-1.5.6-1.5,1.3-3,2-4.5.7.8,1.6,1.5,2.5,2,3-.3,5.7-1.3,8-3,.6,5.4-.4,10.4-3,15-.4,4.4-1.3,8.8-2.5,13Z"/>
      <path class="cls-3" d="M236.5,225.5c-2.1-.6-3.7-1.7-5-3.5.5-2.9,1.2-5.7,2-8.5,2.1-2.8,3.8-2.6,5,.5-.6,3.9-1.3,7.7-2,11.5Z"/>
      <path class="cls-16" d="M209.5,231.5c-4.3,1.9-8.6,2.2-13,1,4.3-.2,8.7-.6,13-1Z"/>
      <path class="cls-25" d="M255.5,239.5c-5.4,2-11,3-17,3,5.4-1.6,11.1-2.6,17-3Z"/>
      <path class="cls-57" d="M300.5,241.5c-4.8.9-9.8,1.6-15,2,.8-.8,1.8-1.3,3-1.5,4-.5,8-.7,12-.5Z"/>
      <path class="cls-17" d="M337.5,239.5c-1.5,4.3-3.5,8.3-6,12h-4c-.3,2-.7,4-1,6-1.8,0-3.5.5-5,1.5,1.5.7,2.1,1.9,2,3.5-1.5,3-3.5,5.7-6,8-3.4-.2-6.7,0-10,.5-7.5,2.3-15.2,3.8-23,4.5h-4v-6c-1.6-.3-2.9,0-4,1-1.6-1.1-3.3-1.1-5,0-1.7-.5-3.1-1.5-4-3v-3h-7v-3h4c.9-1.1,1.3-2.4,1-4-2,.2-4,0-6-.5.6-.4.9-.9,1-1.5h4v-4c-3.4,0-6.7.3-10,1-.3,1.9,0,3.6,1,5,0,4,.3,8,1,12-1.4.7-2.9,1.4-4.5,2,0-2.6-.8-4.6-2.5-6-.8-3.6-1.5-7.3-2-11-2,.3-4,.7-6,1-.3,3.5-1.1,6.9-2.5,10-1.9-2-3-4.4-3.5-7h-7c-.8,1.5-1.3,3.1-1.5,5-1.6.3-3.1-.3-4.5-2-1.7-1.3-3.3-1.3-5,0-2,.3-4,.7-6,1,0,2.7.4,5.4,1,8,0,2.7.6,5,2,7v1c1.2,1.8,1.2,3.5,0,5-5,.5-9.5,1.5-13.5,3-.7,4.5-.2,4.8,1.5,1,.7.5,1.2,1.2,1.5,2,2.8-1.1,5.9-1.7,9.5-2,3.7-.4,7.4-1,11-2,1.1.9,2.4,1.3,4,1v-3h3c2.2.8,3.8,2.1,5,4-16.1,5.2-32.1,10.7-48,16.5-9.3,3.7-18.3,7.8-27,12.5-22.1-6.4-41.5-17.4-58-33,59-20.8,119.6-34.2,182-40,5.2-.4,10.2-1.1,15-2,12.3-.4,24.7-1.1,37-2Z"/>
      <path class="cls-39" d="M298.5,261.5c-.1-4-.5-8-1-12h-5c-.1-1.6.5-2.8,2-3.5,3.6-.7,7.3-1.2,11-1.5v4h-4c.4,4.3.8,8.7,1,13h-4Z"/>
      <path class="cls-1" d="M286.5,248.5h-4c.2,2.7,0,5.4-.5,8-.7-.5-1.2-1.2-1.5-2,1-2.1,1.3-4.4,1-7,1.9-.3,3.6,0,5,1Z"/>
      <path class="cls-38" d="M286.5,248.5c.7,3,1,6,1,9v6h-4c-1.4-2-3.3-3.7-5.5-5-.5,2.3-.7,4.6-.5,7h-4c-1.3-5.2-2-10.6-2-16,1.7-.2,3.4,0,5,.5,1.2,1.7,2.6,3.2,4,4.5.3.8.8,1.5,1.5,2,.5-2.6.7-5.3.5-8h4Z"/>
      <path class="cls-47" d="M260.5,255.5c-1.5.3-2.2,1.3-2,3h6v3h-4v3h7v3c-3.6.8-7.3,1.5-11,2-.7-4-1-8-1-12v-4c1.8-.2,3.7-.6,5.5-1,.8.3,1.7.7,2.5,1-1.1.7-2.1,1.3-3,2Z"/>
      <path class="cls-55" d="M260.5,255.5c.9-.7,1.9-1.3,3-2-.8-.3-1.7-.7-2.5-1-1.8.4-3.7.8-5.5,1v4c-1-1.4-1.3-3.1-1-5,3.3-.7,6.6-1,10-1v4h-4Z"/>
      <path class="cls-10" d="M292.5,249.5h5c.5,4,.9,8,1,12-1.2-3.4-1.9-7.1-2-11-1.6.3-2.9,0-4-1Z"/>
      <path class="cls-27" d="M260.5,255.5c-.1.6-.4,1.1-1,1.5,2,.5,4,.7,6,.5.3,1.6,0,2.9-1,4v-3h-6c-.2-1.7.5-2.7,2-3Z"/>
      <path class="cls-58" d="M331.5,251.5c-1.9,4.2-4.6,7.9-8,11,.1-1.6-.5-2.8-2-3.5,1.5-1,3.2-1.5,5-1.5.3-2,.7-4,1-6h4Z"/>
      <path class="cls-39" d="M249.5,265.5c2.1,4.5.8,6.3-4,5.5-.7-1.4-1.2-2.9-1.5-4.5-1.1,2.1-1.9,4.2-2.5,6.5-1.1.7-2.1.6-3-.5-.4-1.2-1.1-2.2-2-3-1,1.5-1.3,3.2-1,5h-4c0-1.5-.3-2.8-1-4,0-2.7-.6-5-2-7v-5h7c.5,2.6,1.6,5,3.5,7,1.4-3.1,2.2-6.5,2.5-10,2-.3,4-.7,6-1,.5,3.7,1.2,7.4,2,11Z"/>
      <path class="cls-56" d="M217.5,261.5h4v3c-2-.1-3.6.5-5,2,1.9,1,3.9,1.3,6,1v3h-4v4c2-.3,4-.7,6-1v4c-3.4.1-6.7.4-10,1v-1c0-2.7-.6-5-2-7-.6-2.6-.9-5.3-1-8,2-.3,4-.7,6-1Z"/>
      <path class="cls-67" d="M217.5,261.5c1.7-1.3,3.3-1.3,5,0,.2,1.3,0,2.3-1,3v-3h-4Z"/>
      <path class="cls-2" d="M287.5,257.5c1,2.1,1.3,4.4,1,7-1.9.3-3.6,0-5-1h4v-6Z"/>
      <path class="cls-62" d="M228.5,263.5c1.4,2,2.1,4.3,2,7-1.4-2-2.1-4.3-2-7Z"/>
      <path class="cls-37" d="M317.5,270.5c-1.9,3.1-4.2,5.7-7,8-.8-.6-1.8-1-3-1-46.5,8.5-91.5,21.8-135,40-.8.5-1.1,1.1-1,2-3.4-.7-6.7-1.7-10-3,8.7-4.7,17.7-8.8,27-12.5,15.9-5.8,31.9-11.3,48-16.5,15.9-4.6,31.9-8.6,48-12,7.8-.7,15.5-2.2,23-4.5,3.3-.5,6.6-.7,10-.5Z"/>
      <path class="cls-50" d="M200.5,265.5h5c.3,5.5-.4,10.8-2,16-2.2,1.3-4.4,1.3-6.5,0-2.2-4.2-4.8-8.2-7.5-12,1.6-1.1,3.2-1.3,5-.5,1.1,2.4,2.6,4.6,4.5,6.5,1.4-3.1,1.9-6.5,1.5-10Z"/>
      <path class="cls-53" d="M212.5,270.5c1.4,2,2.1,4.3,2,7-1.4-2-2.1-4.3-2-7Z"/>
      <path class="cls-7" d="M228.5,258.5v5c0,2.7.6,5,2,7,.7,1.2,1.1,2.5,1,4h4c-.3-1.8,0-3.5,1-5,.9.8,1.6,1.8,2,3,.9,1.1,1.9,1.2,3,.5.6-2.3,1.4-4.4,2.5-6.5.3,1.6.8,3.1,1.5,4.5,4.8.8,6.1-1,4-5.5,1.7,1.4,2.5,3.4,2.5,6,1.6-.6,3.1-1.3,4.5-2,3.7-.5,7.4-1.2,11-2,.9,1.5,2.3,2.5,4,3-3.6,0-6.5,1.3-8.5,4-.3-.8-.8-1.5-1.5-2-3.3.9-6.6.9-10,0-.2,1.7,0,3.4.5,5,9.1-.7,18.2-1.7,27.5-3v-4h-3c1.1-.9,2.4-1.3,4-1v6h4c-16.1,3.4-32.1,7.4-48,12-1.2-1.9-2.8-3.2-5-4,1.1-1.2,2.1-2.5,3-4,.7.5,1.2,1.2,1.5,2,1.6-.4,3.5-.4,5.5,0v-5c-1.9-.2-3.4.5-4.5,2-.3-.7-.7-1.3-1-2-2.1,1-4.2,1.9-6.5,2.5-.9,1.4-1.2,2.9-1,4.5v3c-1.6.3-2.9,0-4-1-3.6,1-7.3,1.6-11,2,.3-1.3.7-2.7,1-4,1.2-1.5,1.2-3.2,0-5,3.3-.6,6.6-.9,10-1v-4c-2,.3-4,.7-6,1v-4h4v-3c-2.1.3-4.1,0-6-1,1.4-1.5,3-2.1,5-2,.9-.7,1.2-1.7,1-3,1.4,1.7,2.9,2.3,4.5,2,.2-1.9.7-3.5,1.5-5Z"/>
      <path class="cls-60" d="M224.5,285.5c.1-.7,0-1.4-.5-2-1.7,1.3-3.3,1.3-5,0-.3.8-.8,1.5-1.5,2-1-1.5-1.3-3.2-1-5,3.4-.9,6.7-1.3,10-1,1,1.9,1.3,3.9,1,6h-3Z"/>
      <path class="cls-34" d="M243.5,274.5h5c1.1,4.4-.6,6.4-5,6v-6Z"/>
      <path class="cls-6" d="M231.5,283.5h-3c-.2-1.6.1-3.1,1-4.5,2.3-.6,4.4-1.5,6.5-2.5.3.7.7,1.3,1,2,1.1-1.5,2.6-2.2,4.5-2v5c-2-.4-3.9-.4-5.5,0-.3-.8-.8-1.5-1.5-2-.9,1.5-1.9,2.8-3,4Z"/>
      <path class="cls-66" d="M276.5,270.5h3v4c-9.3,1.3-18.4,2.3-27.5,3-.5-1.6-.7-3.3-.5-5,3.4.9,6.7.9,10,0,.7.5,1.2,1.2,1.5,2,2-2.7,4.9-4.1,8.5-4,1.7-1.1,3.4-1.1,5,0Z"/>
      <path class="cls-69" d="M174.5,272.5c11.4.6,14.1,5.8,8,15.5-10.1,2.9-14.3-1-12.5-11.5,1.4-1.6,2.9-2.9,4.5-4Z"/>
      <path class="cls-51" d="M180.5,283.5c-1.7,1.3-3.3,1.3-5,0v-5c4-.7,5.7,1,5,5Z"/>
      <path class="cls-5" d="M180.5,283.5c.7-4-1-5.7-5-5v5c-1.9-1.2-2.4-2.8-1.5-5,6.1-2.5,8.2-.8,6.5,5Z"/>
      <path class="cls-70" d="M160.5,292.5c.3-1.9-.2-3.6-1.5-5-.5,2.6-.7,5.3-.5,8-3.6,1.3-6.1,0-7.5-4v6c-1.2,1.2-2.3,1.2-3.5,0-1.5-3.9-2.9-7.9-4-12,.6-2,1.9-3,4-3,2,1.3,3.7,3,5,5,.4,1.1,1.1,2.1,2,3,1-1.9,1.3-3.9,1-6-.9-5.4,1.1-7.1,6-5,1.4,4.1,2.7,8.3,4,12.5-1.6,2.9-3.3,3-5,.5Z"/>
      <path class="cls-30" d="M155.5,284.5c.3,2.1,0,4.1-1,6-.9-.9-1.6-1.9-2-3,1.4-.6,2.4-1.6,3-3Z"/>
      <path class="cls-64" d="M214.5,283.5c-.3,1.3-.7,2.7-1,4-3.6.3-6.7.9-9.5,2-.3-.8-.8-1.5-1.5-2-1.7,3.8-2.2,3.5-1.5-1,4-1.5,8.5-2.5,13.5-3Z"/>
      <path class="cls-35" d="M195.5,286.5c2.7,2,2.5,3.6-.5,5-.6-1.8-.5-3.4.5-5Z"/>
      <path class="cls-15" d="M160.5,292.5c-.7,1-1.3,2-2,3-.2-2.7,0-5.4.5-8,1.3,1.4,1.8,3.1,1.5,5Z"/>
      <path class="cls-59" d="M310.5,278.5c-17.9,18.3-39.2,30.9-64,38-2.7,0-5,.6-7,2-11.3,3.2-23,4.5-35,4-11.1.4-22.1-.6-33-3-.1-.9.2-1.5,1-2,43.5-18.2,88.5-31.5,135-40,1.2,0,2.2.4,3,1Z"/>
      <path class="cls-32" d="M246.5,316.5c-2,1.4-4.3,2.1-7,2,2-1.4,4.3-2.1,7-2Z"/>
    </g>
  </g>
</svg>