<?xml version="1.0" encoding="UTF-8"?>
<!DOCTYPE svg PUBLIC "-//W3C//DTD SVG 1.1//EN" "http://www.w3.org/Graphics/SVG/1.1/DTD/svg11.dtd">
<svg xmlns="http://www.w3.org/2000/svg" version="1.1" width="930px" height="351px" style="shape-rendering:geometricPrecision; text-rendering:geometricPrecision; image-rendering:optimizeQuality; fill-rule:evenodd; clip-rule:evenodd" xmlns:xlink="http://www.w3.org/1999/xlink">
<g><path style="opacity:1" fill="#f3faf7" d="M 137.5,92.5 C 138.582,93.5938 139.248,94.9271 139.5,96.5C 137.861,98.8061 135.861,100.806 133.5,102.5C 129.599,98.9938 125.932,95.3272 122.5,91.5C 118.61,86.456 114.61,81.6227 110.5,77C 111.653,74.2124 113.653,72.0457 116.5,70.5C 123.521,77.8539 130.521,85.1872 137.5,92.5 Z"/></g>
<g><path style="opacity:0.997" fill="#06913f" d="M 246.5,32.5 C 298.577,48.7447 332.411,83.078 348,135.5C 354,161.5 354,187.5 348,213.5C 346.12,219.643 343.953,225.643 341.5,231.5C 312.693,232.759 284.026,235.425 255.5,239.5C 249.588,239.852 243.921,240.852 238.5,242.5C 233.793,243.121 229.127,243.621 224.5,244C 228.575,239.679 230.908,234.512 231.5,228.5C 232.688,227.316 233.855,227.316 235,228.5C 235.513,227.473 236.013,226.473 236.5,225.5C 238.154,223.44 239.154,220.94 239.5,218C 239.833,217.833 240.167,217.667 240.5,217.5C 241.176,218.602 241.842,219.602 242.5,220.5C 244.199,220.66 245.866,220.494 247.5,220C 250.306,216.886 252.473,213.386 254,209.5C 255.11,211.037 256.61,211.703 258.5,211.5C 258.5,210.5 258.5,209.5 258.5,208.5C 259.833,208.5 261.167,208.5 262.5,208.5C 262.687,210.564 263.187,212.564 264,214.5C 265.049,215.517 266.216,215.684 267.5,215C 268.947,211.487 270.28,207.987 271.5,204.5C 271.369,203.624 271.702,202.957 272.5,202.5C 274.959,204.984 277.626,206.984 280.5,208.5C 297.533,160.471 284.533,123.305 241.5,97C 200.019,79.996 164.853,88.496 136,122.5C 133.394,127.435 130.394,132.102 127,136.5C 124.361,144.058 122.194,151.725 120.5,159.5C 118.636,157.078 118.136,154.411 119,151.5C 118.333,150.167 117.667,150.167 117,151.5C 116.044,150.421 115.211,149.255 114.5,148C 115.097,146.374 115.097,144.541 114.5,142.5C 113.138,144.012 112.804,145.512 113.5,147C 112.437,148.188 111.103,148.688 109.5,148.5C 109.833,146.5 110.167,144.5 110.5,142.5C 108.102,142.741 106.102,142.074 104.5,140.5C 106.773,141.735 108.606,141.402 110,139.5C 111.79,134.586 114.124,129.919 117,125.5C 120.299,113.303 115.799,108.303 103.5,110.5C 102.655,106.985 100.655,104.319 97.5,102.5C 99.7659,102.141 101.599,102.808 103,104.5C 104.135,101.293 106.135,99.9594 109,100.5C 109.483,101.448 109.649,102.448 109.5,103.5C 112.216,103.678 114.883,104.178 117.5,105C 109.582,107.062 109.582,108.896 117.5,110.5C 119.833,109.5 121.5,107.833 122.5,105.5C 120.02,104.585 119.353,103.085 120.5,101C 119.643,100.311 118.977,99.4776 118.5,98.5C 120.5,97.8333 122.5,97.1667 124.5,96.5C 123.544,94.9246 122.877,93.258 122.5,91.5C 125.932,95.3272 129.599,98.9938 133.5,102.5C 135.861,100.806 137.861,98.8061 139.5,96.5C 139.248,94.9271 138.582,93.5938 137.5,92.5C 139.199,92.6602 140.866,92.4935 142.5,92C 141.978,91.4387 141.645,90.772 141.5,90C 142.581,88.6293 143.415,87.1293 144,85.5C 144.667,86.8333 145.333,86.8333 146,85.5C 146.7,87.032 147.866,88.032 149.5,88.5C 150.298,90.0777 150.798,91.7444 151,93.5C 151.333,93.1667 151.667,92.8333 152,92.5C 155.235,93.4658 158.235,94.7991 161,96.5C 164.637,95.122 166.137,92.4554 165.5,88.5C 161.016,88.1408 157.016,87.4742 153.5,86.5C 151.87,83.7239 151.203,80.7239 151.5,77.5C 152.628,80.1854 153.962,82.8521 155.5,85.5C 159.946,83.183 164.613,81.3496 169.5,80C 173.333,77.5 176.5,74.3333 179,70.5C 179.499,66.8484 179.665,63.1817 179.5,59.5C 180.117,59.6107 180.617,59.944 181,60.5C 181.333,62.8333 181.667,65.1667 182,67.5C 182.196,65.0955 183.362,63.4289 185.5,62.5C 186.711,63.2739 186.711,64.1072 185.5,65C 187.811,66.0521 189.144,67.8854 189.5,70.5C 187.732,70.85 185.732,71.6833 183.5,73C 182.788,74.425 182.621,75.925 183,77.5C 181.89,79.0368 180.39,79.7035 178.5,79.5C 178.421,80.9305 178.754,82.2638 179.5,83.5C 183.717,83.9763 187.717,84.9763 191.5,86.5C 198.392,85.2772 205.225,85.2772 212,86.5C 215.115,84.3954 218.115,84.3954 221,86.5C 221.689,85.6433 222.522,84.9767 223.5,84.5C 224.499,74.5222 224.832,64.5222 224.5,54.5C 227.628,55.6181 230.628,55.4514 233.5,54C 234.147,50.505 235.147,46.8383 236.5,43C 235.185,41.6054 235.519,40.6054 237.5,40C 234.833,39.3333 234.833,38.6667 237.5,38C 235.595,37.1739 235.261,36.0072 236.5,34.5C 240.777,35.6055 245.11,35.7722 249.5,35C 248.747,33.513 247.914,33.3463 247,34.5C 246.536,33.9056 246.369,33.2389 246.5,32.5 Z"/></g>
<g><path style="opacity:1" fill="#f3faf7" d="M 291.5,70.5 C 295.625,71.9733 297.958,74.9733 298.5,79.5C 298.028,84.031 296.861,88.3643 295,92.5C 294.333,94.8333 294.333,97.1667 295,99.5C 298.758,95.0688 303.092,91.4021 308,88.5C 310.631,89.9633 312.798,91.9633 314.5,94.5C 305.958,102.472 297.291,110.472 288.5,118.5C 286.605,117.027 284.939,115.36 283.5,113.5C 283.167,112.333 282.833,111.167 282.5,110C 283.478,103.304 285.145,96.8043 287.5,90.5C 286.998,89.479 286.332,89.3123 285.5,90C 281.322,93.5135 277.155,97.0135 273,100.5C 270.622,98.7613 268.455,96.7613 266.5,94.5C 274.88,86.451 283.214,78.451 291.5,70.5 Z"/></g>
<g><path style="opacity:1" fill="#f2f9f6" d="M 241.5,43.5 C 248.816,45.8274 256.15,48.1607 263.5,50.5C 262.833,52.8333 262.167,55.1667 261.5,57.5C 257.436,57.4239 253.603,56.4239 250,54.5C 247.955,55.6381 247.288,57.3047 248,59.5C 251.533,60.5081 254.7,62.1748 257.5,64.5C 256.05,65.8498 255.383,67.5165 255.5,69.5C 251.346,69.0884 247.346,68.0884 243.5,66.5C 243.007,68.8056 242.674,71.139 242.5,73.5C 246.788,73.8175 250.455,75.4842 253.5,78.5C 252.864,80.7946 251.531,82.4613 249.5,83.5C 243.188,81.3404 236.854,79.3404 230.5,77.5C 233.85,66.1126 237.517,54.7793 241.5,43.5 Z"/></g>
<g><path style="opacity:0.999" fill="#fafbfa" d="M 271.5,204.5 C 270.566,203.432 270.232,202.099 270.5,200.5C 272.868,189.292 274.034,177.959 274,166.5C 271.358,163.971 268.192,162.971 264.5,163.5C 262.031,152.25 257.531,141.917 251,132.5C 248.131,129.296 244.965,126.463 241.5,124C 226.395,116.579 210.395,114.412 193.5,117.5C 185.298,120.43 178.298,125.096 172.5,131.5C 173,131.833 173.5,132.167 174,132.5C 189.994,125.635 206.827,122.468 224.5,123C 226.667,124.5 228.833,126 231,127.5C 231.92,130.101 232.587,132.768 233,135.5C 237.022,140.52 241.356,145.186 246,149.5C 248.257,152.438 249.424,155.771 249.5,159.5C 235.057,160.357 220.557,161.691 206,163.5C 201.25,166.2 196.417,169.033 191.5,172C 182.117,172.147 172.783,172.813 163.5,174C 161.859,175.129 160.859,176.629 160.5,178.5C 158.728,180.29 156.728,181.623 154.5,182.5C 153.414,182.62 152.747,183.287 152.5,184.5C 152.846,185.849 153.179,187.183 153.5,188.5C 156.355,193.557 159.688,198.223 163.5,202.5C 163.945,206.091 164.945,209.424 166.5,212.5C 167.713,223.79 172.379,233.456 180.5,241.5C 184.274,243.771 187.607,246.604 190.5,250C 193.167,250.667 195.833,250.667 198.5,250C 205.573,248.238 212.239,245.571 218.5,242C 218.501,240.601 218.835,239.101 219.5,237.5C 217.995,236.158 217.328,234.492 217.5,232.5C 214.873,231.908 212.206,231.575 209.5,231.5C 205.176,231.927 200.842,232.261 196.5,232.5C 195.13,232.144 194.13,231.31 193.5,230C 195.112,228.518 196.112,226.685 196.5,224.5C 199.882,224.274 202.882,223.274 205.5,221.5C 205.461,222.756 205.961,223.756 207,224.5C 207.273,222.899 207.773,221.399 208.5,220C 210.906,219.694 213.073,218.861 215,217.5C 216.261,217.759 217.261,218.426 218,219.5C 221.98,216.403 225.646,217.07 229,221.5C 230.413,223.652 231.246,225.986 231.5,228.5C 230.908,234.512 228.575,239.679 224.5,244C 229.127,243.621 233.793,243.121 238.5,242.5C 244.479,242.507 250.146,241.507 255.5,239.5C 284.026,235.425 312.693,232.759 341.5,231.5C 340.674,234.485 339.341,237.151 337.5,239.5C 325.183,240.443 312.849,241.11 300.5,241.5C 296.486,241.334 292.486,241.501 288.5,242C 287.263,242.232 286.263,242.732 285.5,243.5C 223.149,249.334 162.483,262.668 103.5,283.5C 101.167,281.833 99.1667,279.833 97.5,277.5C 124.668,267.893 152.335,259.727 180.5,253C 137.22,236.868 117.22,205.701 120.5,159.5C 122.194,151.725 124.361,144.058 127,136.5C 130.394,132.102 133.394,127.435 136,122.5C 164.853,88.496 200.019,79.996 241.5,97C 284.533,123.305 297.533,160.471 280.5,208.5C 277.626,206.984 274.959,204.984 272.5,202.5C 271.702,202.957 271.369,203.624 271.5,204.5 Z"/></g>
<g><path style="opacity:0.926" fill="#fefffe" d="M 424.5,99.5 C 441.501,97.2499 454.001,103.583 462,118.5C 466.881,143.074 456.881,156.741 432,159.5C 407.119,156.741 397.119,143.074 402,118.5C 406.657,108.667 414.157,102.333 424.5,99.5 Z M 427.5,112.5 C 437.068,110.929 443.568,114.595 447,123.5C 449.476,138.343 443.309,145.843 428.5,146C 416.929,141.007 413.429,132.507 418,120.5C 420.772,117.217 423.939,114.55 427.5,112.5 Z"/></g>
<g><path style="opacity:0.921" fill="#fefffe" d="M 471.5,99.5 C 481.839,99.3335 492.172,99.5002 502.5,100C 518.89,101.634 523.724,109.8 517,124.5C 515.414,125.376 513.914,126.376 512.5,127.5C 523.126,133.608 525.292,141.941 519,152.5C 515.863,154.986 512.363,156.819 508.5,158C 495.838,158.5 483.171,158.667 470.5,158.5C 470.179,138.757 470.513,119.091 471.5,99.5 Z M 486.5,111.5 C 491.385,111.248 496.219,111.581 501,112.5C 504.297,114.158 505.297,116.825 504,120.5C 503.097,121.701 501.931,122.535 500.5,123C 495.845,123.499 491.179,123.666 486.5,123.5C 486.5,119.5 486.5,115.5 486.5,111.5 Z M 486.5,134.5 C 491.511,134.334 496.511,134.501 501.5,135C 506.115,136.077 507.615,138.91 506,143.5C 505.097,144.701 503.931,145.535 502.5,146C 497.177,146.499 491.844,146.666 486.5,146.5C 486.5,142.5 486.5,138.5 486.5,134.5 Z"/></g>
<g><path style="opacity:0.907" fill="#fefffe" d="M 530.5,99.5 C 535.5,99.5 540.5,99.5 545.5,99.5C 545.5,119.167 545.5,138.833 545.5,158.5C 540.167,158.5 534.833,158.5 529.5,158.5C 529.179,138.757 529.513,119.091 530.5,99.5 Z"/></g>
<g><path style="opacity:0.919" fill="#fefffe" d="M 557.5,99.5 C 570.283,98.9082 582.95,99.7416 595.5,102C 613.132,111.664 617.966,125.83 610,144.5C 605.163,151.34 598.663,155.84 590.5,158C 579.172,158.5 567.838,158.667 556.5,158.5C 556.179,138.757 556.513,119.091 557.5,99.5 Z M 572.5,112.5 C 592.852,110.015 600.686,118.681 596,138.5C 594.01,142.49 590.843,144.99 586.5,146C 581.845,146.499 577.179,146.666 572.5,146.5C 572.5,135.167 572.5,123.833 572.5,112.5 Z"/></g>
<g><path style="opacity:0.907" fill="#fefffe" d="M 621.5,99.5 C 626.5,99.5 631.5,99.5 636.5,99.5C 636.5,119.167 636.5,138.833 636.5,158.5C 631.167,158.5 625.833,158.5 620.5,158.5C 620.179,138.757 620.513,119.091 621.5,99.5 Z"/></g>
<g><path style="opacity:0.91" fill="#fefffe" d="M 647.5,99.5 C 662.504,99.3334 677.504,99.5001 692.5,100C 693.464,104.066 693.797,108.233 693.5,112.5C 683.167,112.5 672.833,112.5 662.5,112.5C 662.5,116.167 662.5,119.833 662.5,123.5C 671.833,123.5 681.167,123.5 690.5,123.5C 690.5,127.5 690.5,131.5 690.5,135.5C 681.167,135.5 671.833,135.5 662.5,135.5C 662.5,139.167 662.5,142.833 662.5,146.5C 673.167,146.5 683.833,146.5 694.5,146.5C 694.5,150.5 694.5,154.5 694.5,158.5C 678.5,158.5 662.5,158.5 646.5,158.5C 646.179,138.757 646.513,119.091 647.5,99.5 Z"/></g>
<g><path style="opacity:0.913" fill="#fefffe" d="M 703.5,99.5 C 707.846,99.3343 712.179,99.501 716.5,100C 725,111.167 733.5,122.333 742,133.5C 742.333,122.5 742.667,111.5 743,100.5C 747.667,99.1667 752.333,99.1667 757,100.5C 757.5,119.83 757.667,139.164 757.5,158.5C 752.821,158.666 748.155,158.499 743.5,158C 735,146.833 726.5,135.667 718,124.5C 717.5,135.828 717.333,147.162 717.5,158.5C 712.5,158.5 707.5,158.5 702.5,158.5C 702.179,138.757 702.513,119.091 703.5,99.5 Z"/></g>
<g><path style="opacity:0.925" fill="#fefffe" d="M 764.5,99.5 C 780.837,99.3334 797.17,99.5001 813.5,100C 814.464,104.066 814.797,108.233 814.5,112.5C 808.5,112.5 802.5,112.5 796.5,112.5C 796.5,127.833 796.5,143.167 796.5,158.5C 791.5,158.5 786.5,158.5 781.5,158.5C 781.5,143.167 781.5,127.833 781.5,112.5C 775.5,112.5 769.5,112.5 763.5,112.5C 763.231,108.069 763.564,103.735 764.5,99.5 Z"/></g>
<g><path style="opacity:1" fill="#f2f9f6" d="M 97.5,102.5 C 100.655,104.319 102.655,106.985 103.5,110.5C 115.799,108.303 120.299,113.303 117,125.5C 114.124,129.919 111.79,134.586 110,139.5C 108.606,141.402 106.773,141.735 104.5,140.5C 96.5526,134.658 87.886,129.824 78.5,126C 77.9781,125.439 77.6448,124.772 77.5,124C 80.8116,116.379 85.1449,109.379 90.5,103C 92.8098,102.503 95.1432,102.337 97.5,102.5 Z"/></g>
<g><path style="opacity:1" fill="#26914d" d="M 91.5,113.5 C 93.1992,113.34 94.8659,113.506 96.5,114C 97.433,117.341 96.433,120.174 93.5,122.5C 88.918,120.5 88.2513,117.5 91.5,113.5 Z"/></g>
<g><path style="opacity:1" fill="#1f9048" d="M 103.5,119.5 C 105.5,119.5 107.5,119.5 109.5,119.5C 109.562,123.376 108.062,126.376 105,128.5C 102.786,128.154 101.286,126.988 100.5,125C 101.632,123.235 102.632,121.402 103.5,119.5 Z"/></g>
<g><path style="opacity:1" fill="#f1f9f5" d="M 329.5,123.5 C 332.528,132.577 335.194,141.91 337.5,151.5C 334.873,152.092 332.206,152.425 329.5,152.5C 329.477,150.073 328.977,147.74 328,145.5C 327.275,144.941 326.442,144.608 325.5,144.5C 317.636,146.679 309.802,149.013 302,151.5C 299.621,148.684 298.455,145.351 298.5,141.5C 306.426,140.24 314.093,138.24 321.5,135.5C 323.484,135.516 324.484,134.516 324.5,132.5C 323.934,130.303 323.268,128.136 322.5,126C 324.287,123.866 326.62,123.033 329.5,123.5 Z"/></g>
<g><path style="opacity:0.998" fill="#03913f" d="M 246.5,32.5 C 246.369,33.2389 246.536,33.9056 247,34.5C 247.914,33.3463 248.747,33.513 249.5,35C 245.11,35.7722 240.777,35.6055 236.5,34.5C 235.261,36.0072 235.595,37.1739 237.5,38C 234.833,38.6667 234.833,39.3333 237.5,40C 235.519,40.6054 235.185,41.6054 236.5,43C 235.147,46.8383 234.147,50.505 233.5,54C 230.628,55.4514 227.628,55.6181 224.5,54.5C 224.832,64.5222 224.499,74.5222 223.5,84.5C 222.522,84.9767 221.689,85.6433 221,86.5C 218.115,84.3954 215.115,84.3954 212,86.5C 205.225,85.2772 198.392,85.2772 191.5,86.5C 187.717,84.9763 183.717,83.9763 179.5,83.5C 178.754,82.2638 178.421,80.9305 178.5,79.5C 180.39,79.7035 181.89,79.0368 183,77.5C 182.621,75.925 182.788,74.425 183.5,73C 185.732,71.6833 187.732,70.85 189.5,70.5C 189.144,67.8854 187.811,66.0521 185.5,65C 186.711,64.1072 186.711,63.2739 185.5,62.5C 183.362,63.4289 182.196,65.0955 182,67.5C 181.667,65.1667 181.333,62.8333 181,60.5C 180.617,59.944 180.117,59.6107 179.5,59.5C 176.522,48.305 169.189,43.805 157.5,46C 151.72,47.7257 146.386,50.2257 141.5,53.5C 145.026,61.409 148.359,69.409 151.5,77.5C 151.203,80.7239 151.87,83.7239 153.5,86.5C 157.016,87.4742 161.016,88.1408 165.5,88.5C 166.137,92.4554 164.637,95.122 161,96.5C 158.235,94.7991 155.235,93.4658 152,92.5C 151.667,92.8333 151.333,93.1667 151,93.5C 150.798,91.7444 150.298,90.0777 149.5,88.5C 147.866,88.032 146.7,87.032 146,85.5C 145.333,86.8333 144.667,86.8333 144,85.5C 143.415,87.1293 142.581,88.6293 141.5,90C 141.645,90.772 141.978,91.4387 142.5,92C 140.866,92.4935 139.199,92.6602 137.5,92.5C 130.521,85.1872 123.521,77.8539 116.5,70.5C 113.653,72.0457 111.653,74.2124 110.5,77C 114.61,81.6227 118.61,86.456 122.5,91.5C 122.877,93.258 123.544,94.9246 124.5,96.5C 122.5,97.1667 120.5,97.8333 118.5,98.5C 118.977,99.4776 119.643,100.311 120.5,101C 119.353,103.085 120.02,104.585 122.5,105.5C 121.5,107.833 119.833,109.5 117.5,110.5C 109.582,108.896 109.582,107.062 117.5,105C 114.883,104.178 112.216,103.678 109.5,103.5C 109.649,102.448 109.483,101.448 109,100.5C 106.135,99.9594 104.135,101.293 103,104.5C 101.599,102.808 99.7659,102.141 97.5,102.5C 95.1432,102.337 92.8098,102.503 90.5,103C 85.1449,109.379 80.8116,116.379 77.5,124C 77.6448,124.772 77.9781,125.439 78.5,126C 87.886,129.824 96.5526,134.658 104.5,140.5C 106.102,142.074 108.102,142.741 110.5,142.5C 110.167,144.5 109.833,146.5 109.5,148.5C 111.103,148.688 112.437,148.188 113.5,147C 112.804,145.512 113.138,144.012 114.5,142.5C 115.097,144.541 115.097,146.374 114.5,148C 115.211,149.255 116.044,150.421 117,151.5C 117.667,150.167 118.333,150.167 119,151.5C 118.136,154.411 118.636,157.078 120.5,159.5C 117.22,205.701 137.22,236.868 180.5,253C 152.335,259.727 124.668,267.893 97.5,277.5C 61.3557,238.194 48.8557,192.194 60,139.5C 75.2236,83.943 110.39,47.7764 165.5,31C 183.938,26.7705 202.605,25.4372 221.5,27C 230.197,27.7702 238.53,29.6035 246.5,32.5 Z"/></g>
<g><path style="opacity:1" fill="#daf5ea" d="M 202.5,37.5 C 205.833,37.5 209.167,37.5 212.5,37.5C 212.5,49.5 212.5,61.5 212.5,73.5C 209.167,73.5 205.833,73.5 202.5,73.5C 202.5,61.5 202.5,49.5 202.5,37.5 Z"/></g>
<g><path style="opacity:1" fill="#f2f9f6" d="M 179.5,59.5 C 179.665,63.1817 179.499,66.8484 179,70.5C 176.5,74.3333 173.333,77.5 169.5,80C 164.613,81.3496 159.946,83.183 155.5,85.5C 153.962,82.8521 152.628,80.1854 151.5,77.5C 148.359,69.409 145.026,61.409 141.5,53.5C 146.386,50.2257 151.72,47.7257 157.5,46C 169.189,43.805 176.522,48.305 179.5,59.5 Z"/></g>
<g><path style="opacity:1" fill="#138f43" d="M 157.5,54.5 C 166.97,54.4737 170.803,59.1404 169,68.5C 166.636,70.3628 164.136,72.0295 161.5,73.5C 158.651,68.6829 156.318,63.5162 154.5,58C 155.071,56.4009 156.071,55.2342 157.5,54.5 Z"/></g>
<g><path style="opacity:1" fill="#fcfdfc" d="M 203.5,38.5 C 206.167,38.5 208.833,38.5 211.5,38.5C 211.5,49.8333 211.5,61.1667 211.5,72.5C 208.833,72.5 206.167,72.5 203.5,72.5C 203.5,61.1667 203.5,49.8333 203.5,38.5 Z"/></g>
<g><path style="opacity:1" fill="#3b985f" d="M 329.5,123.5 C 326.62,123.033 324.287,123.866 322.5,126C 323.268,128.136 323.934,130.303 324.5,132.5C 324.484,134.516 323.484,135.516 321.5,135.5C 321.334,131.486 321.501,127.486 322,123.5C 324.605,122.186 327.105,122.186 329.5,123.5 Z"/></g>
<g><path style="opacity:1" fill="#4e946a" d="M 164.5,153.5 C 165.995,153.415 166.995,154.081 167.5,155.5C 165.604,156.639 164.604,155.973 164.5,153.5 Z"/></g>
<g><path style="opacity:1" fill="#f5fbf8" d="M 105.5,172.5 C 105.54,175.881 105.207,179.214 104.5,182.5C 102.389,187.778 98.7226,191.612 93.5,194C 74.3462,195.844 66.8462,187.344 71,168.5C 77.4251,158.201 86.2584,155.701 97.5,161C 101.582,163.905 104.249,167.738 105.5,172.5 Z"/></g>
<g><path style="opacity:1" fill="#109142" d="M 270.5,200.5 C 269.717,202.343 269.05,204.343 268.5,206.5C 267.833,207.833 267.167,207.833 266.5,206.5C 265.333,204.833 264.167,203.167 263,201.5C 262.605,199.821 262.772,198.155 263.5,196.5C 262.023,194.361 261.023,192.028 260.5,189.5C 263.491,189.834 265.824,188.834 267.5,186.5C 269.387,184.211 270.721,181.545 271.5,178.5C 271.808,176.076 271.474,173.743 270.5,171.5C 269.264,170.754 267.93,170.421 266.5,170.5C 266.016,173.788 267.016,176.455 269.5,178.5C 269.625,181.608 268.292,183.608 265.5,184.5C 264.717,182.924 263.55,181.591 262,180.5C 262.698,185.121 261.698,185.454 259,181.5C 257.34,177.178 255.84,172.845 254.5,168.5C 250.61,168.272 246.776,168.606 243,169.5C 240.835,172.167 238.002,173.667 234.5,174C 232.859,175.129 231.859,176.629 231.5,178.5C 230.596,177.791 230.263,176.791 230.5,175.5C 224.436,174.039 218.102,173.373 211.5,173.5C 209.233,174.362 208.233,176.029 208.5,178.5C 210.565,178.517 212.565,178.85 214.5,179.5C 217.214,179.25 219.881,179.083 222.5,179C 219.12,180.931 215.454,182.098 211.5,182.5C 207.764,181.698 204.098,180.698 200.5,179.5C 199.749,178.427 198.749,178.26 197.5,179C 195.47,180.931 193.137,182.431 190.5,183.5C 189.148,182.482 188.148,181.149 187.5,179.5C 186.548,181.045 186.215,182.712 186.5,184.5C 183.124,184.952 179.791,185.618 176.5,186.5C 175.15,185.05 173.484,184.383 171.5,184.5C 171.5,186.167 171.5,187.833 171.5,189.5C 173.483,189.157 174.817,189.824 175.5,191.5C 172.708,193.058 169.708,194.391 166.5,195.5C 164.606,193.176 163.273,190.509 162.5,187.5C 161.89,186.609 161.557,185.609 161.5,184.5C 162.404,183.791 162.737,182.791 162.5,181.5C 161.449,180.778 160.782,179.778 160.5,178.5C 160.859,176.629 161.859,175.129 163.5,174C 172.783,172.813 182.117,172.147 191.5,172C 196.417,169.033 201.25,166.2 206,163.5C 220.557,161.691 235.057,160.357 249.5,159.5C 249.424,155.771 248.257,152.438 246,149.5C 241.356,145.186 237.022,140.52 233,135.5C 232.587,132.768 231.92,130.101 231,127.5C 228.833,126 226.667,124.5 224.5,123C 206.827,122.468 189.994,125.635 174,132.5C 173.5,132.167 173,131.833 172.5,131.5C 178.298,125.096 185.298,120.43 193.5,117.5C 210.395,114.412 226.395,116.579 241.5,124C 244.965,126.463 248.131,129.296 251,132.5C 257.531,141.917 262.031,152.25 264.5,163.5C 268.192,162.971 271.358,163.971 274,166.5C 274.034,177.959 272.868,189.292 270.5,200.5 Z"/></g>
<g><path style="opacity:1" fill="#dff5ec" d="M 214.5,165.5 C 215.833,165.5 217.167,165.5 218.5,165.5C 218.143,169.395 216.143,170.395 212.5,168.5C 213.193,167.482 213.859,166.482 214.5,165.5 Z"/></g>
<g><path style="opacity:1" fill="#74b48e" d="M 163.5,162.5 C 164.649,162.791 165.316,163.624 165.5,165C 164.658,168.253 162.658,170.086 159.5,170.5C 161.295,168.478 162.628,165.811 163.5,162.5 Z"/></g>
<g><path style="opacity:1" fill="#f3f9f6" d="M 265.5,184.5 C 266.167,185.167 266.833,185.833 267.5,186.5C 265.824,188.834 263.491,189.834 260.5,189.5C 261.023,192.028 262.023,194.361 263.5,196.5C 262.772,198.155 262.605,199.821 263,201.5C 264.167,203.167 265.333,204.833 266.5,206.5C 267.167,207.833 267.833,207.833 268.5,206.5C 269.05,204.343 269.717,202.343 270.5,200.5C 270.232,202.099 270.566,203.432 271.5,204.5C 270.28,207.987 268.947,211.487 267.5,215C 266.216,215.684 265.049,215.517 264,214.5C 263.187,212.564 262.687,210.564 262.5,208.5C 261.167,208.5 259.833,208.5 258.5,208.5C 258.5,209.5 258.5,210.5 258.5,211.5C 256.61,211.703 255.11,211.037 254,209.5C 252.473,213.386 250.306,216.886 247.5,220C 245.866,220.494 244.199,220.66 242.5,220.5C 243.749,216.267 244.582,211.934 245,207.5C 247.607,202.863 248.607,197.863 248,192.5C 245.699,194.233 243.032,195.233 240,195.5C 239.05,194.978 238.216,194.311 237.5,193.5C 236.756,194.991 236.09,196.491 235.5,198C 233.302,198.373 231.135,198.873 229,199.5C 224.313,197.111 219.479,195.277 214.5,194C 212.833,193.333 211.167,193.333 209.5,194C 213.714,197.056 217.881,200.223 222,203.5C 222.499,207.152 222.665,210.818 222.5,214.5C 216.341,214.034 210.341,214.701 204.5,216.5C 203.702,216.957 203.369,217.624 203.5,218.5C 191.917,219.04 191.584,217.873 202.5,215C 207.662,211.846 211.328,207.512 213.5,202C 212.371,199.273 210.704,199.273 208.5,202C 201.528,203.219 194.695,204.719 188,206.5C 186.56,205.852 185.06,205.519 183.5,205.5C 183.649,204.448 183.483,203.448 183,202.5C 180.38,205.576 177.88,208.742 175.5,212C 173.402,212.678 171.402,212.511 169.5,211.5C 167.564,209.757 167.23,207.757 168.5,205.5C 174.569,203.147 180.569,200.814 186.5,198.5C 188.448,194.403 189.948,190.07 191,185.5C 192.019,184.313 193.186,183.313 194.5,182.5C 197.522,185.725 200.855,188.558 204.5,191C 212.233,192.263 219.566,191.263 226.5,188C 227.622,185.876 229.122,184.043 231,182.5C 231.49,181.207 231.657,179.873 231.5,178.5C 231.859,176.629 232.859,175.129 234.5,174C 238.002,173.667 240.835,172.167 243,169.5C 246.776,168.606 250.61,168.272 254.5,168.5C 255.84,172.845 257.34,177.178 259,181.5C 261.698,185.454 262.698,185.121 262,180.5C 263.55,181.591 264.717,182.924 265.5,184.5 Z"/></g>
<g><path style="opacity:1" fill="#ecf9f3" d="M 271.5,178.5 C 270.833,178.5 270.167,178.5 269.5,178.5C 267.016,176.455 266.016,173.788 266.5,170.5C 267.93,170.421 269.264,170.754 270.5,171.5C 271.474,173.743 271.808,176.076 271.5,178.5 Z"/></g>
<g><path style="opacity:1" fill="#0e9041" d="M 82.5,168.5 C 87.7154,167.702 92.2154,169.036 96,172.5C 97.1569,182.666 92.6569,186.5 82.5,184C 76.006,178.921 76.006,173.754 82.5,168.5 Z"/></g>
<g><path style="opacity:1" fill="#79bf97" d="M 105.5,172.5 C 106.156,173.622 106.489,174.955 106.5,176.5C 106.639,178.883 105.972,180.883 104.5,182.5C 105.207,179.214 105.54,175.881 105.5,172.5 Z"/></g>
<g><path style="opacity:1" fill="#26924f" d="M 231.5,178.5 C 231.657,179.873 231.49,181.207 231,182.5C 229.122,184.043 227.622,185.876 226.5,188C 219.566,191.263 212.233,192.263 204.5,191C 200.855,188.558 197.522,185.725 194.5,182.5C 193.186,183.313 192.019,184.313 191,185.5C 189.948,190.07 188.448,194.403 186.5,198.5C 180.569,200.814 174.569,203.147 168.5,205.5C 167.23,207.757 167.564,209.757 169.5,211.5C 168.504,211.586 167.671,211.252 167,210.5C 166.536,211.094 166.369,211.761 166.5,212.5C 164.945,209.424 163.945,206.091 163.5,202.5C 163.5,202.167 163.5,201.833 163.5,201.5C 171.524,201.104 178.69,198.437 185,193.5C 185.684,192.216 185.517,191.049 184.5,190C 181.562,190.446 178.562,190.946 175.5,191.5C 174.817,189.824 173.483,189.157 171.5,189.5C 171.5,187.833 171.5,186.167 171.5,184.5C 173.484,184.383 175.15,185.05 176.5,186.5C 179.791,185.618 183.124,184.952 186.5,184.5C 186.215,182.712 186.548,181.045 187.5,179.5C 188.148,181.149 189.148,182.482 190.5,183.5C 193.137,182.431 195.47,180.931 197.5,179C 198.749,178.26 199.749,178.427 200.5,179.5C 198.775,179.843 198.275,180.843 199,182.5C 201.07,184.849 203.237,187.016 205.5,189C 213.985,190.063 221.485,187.897 228,182.5C 228.667,180.5 228.667,178.5 228,176.5C 227.612,177.428 226.945,178.095 226,178.5C 222.547,175.51 218.714,174.844 214.5,176.5C 214.5,177.5 214.5,178.5 214.5,179.5C 212.565,178.85 210.565,178.517 208.5,178.5C 208.233,176.029 209.233,174.362 211.5,173.5C 218.102,173.373 224.436,174.039 230.5,175.5C 230.263,176.791 230.596,177.791 231.5,178.5 Z"/></g>
<g><path style="opacity:1" fill="#ebf7f1" d="M 200.5,179.5 C 204.098,180.698 207.764,181.698 211.5,182.5C 215.454,182.098 219.12,180.931 222.5,179C 219.881,179.083 217.214,179.25 214.5,179.5C 214.5,178.5 214.5,177.5 214.5,176.5C 218.714,174.844 222.547,175.51 226,178.5C 226.945,178.095 227.612,177.428 228,176.5C 228.667,178.5 228.667,180.5 228,182.5C 221.485,187.897 213.985,190.063 205.5,189C 203.237,187.016 201.07,184.849 199,182.5C 198.275,180.843 198.775,179.843 200.5,179.5 Z"/></g>
<g><path style="opacity:1" fill="#ecf9f3" d="M 162.5,181.5 C 162.737,182.791 162.404,183.791 161.5,184.5C 160.022,184.762 158.689,184.429 157.5,183.5C 158.668,181.783 160.335,181.116 162.5,181.5 Z"/></g>
<g><path style="opacity:1" fill="#78c79a" d="M 269.5,178.5 C 270.167,178.5 270.833,178.5 271.5,178.5C 270.721,181.545 269.387,184.211 267.5,186.5C 266.833,185.833 266.167,185.167 265.5,184.5C 268.292,183.608 269.625,181.608 269.5,178.5 Z"/></g>
<g><path style="opacity:1" fill="#0e8d40" d="M 154.5,182.5 C 155.649,182.791 156.316,183.624 156.5,185C 156.722,187.275 155.722,188.441 153.5,188.5C 153.179,187.183 152.846,185.849 152.5,184.5C 152.747,183.287 153.414,182.62 154.5,182.5 Z"/></g>
<g><path style="opacity:1" fill="#53a374" d="M 160.5,178.5 C 160.782,179.778 161.449,180.778 162.5,181.5C 160.335,181.116 158.668,181.783 157.5,183.5C 158.689,184.429 160.022,184.762 161.5,184.5C 161.557,185.609 161.89,186.609 162.5,187.5C 160.833,187.5 159.167,187.5 157.5,187.5C 158.375,192.59 160.375,197.257 163.5,201.5C 163.5,201.833 163.5,202.167 163.5,202.5C 159.688,198.223 156.355,193.557 153.5,188.5C 155.722,188.441 156.722,187.275 156.5,185C 156.316,183.624 155.649,182.791 154.5,182.5C 156.728,181.623 158.728,180.29 160.5,178.5 Z"/></g>
<g><path style="opacity:1" fill="#b1e6cf" d="M 178.5,186.5 C 183.445,186.824 183.279,187.824 178,189.5C 177.5,189.167 177,188.833 176.5,188.5C 177.243,187.818 177.909,187.151 178.5,186.5 Z"/></g>
<g><path style="opacity:1" fill="#f2faf6" d="M 162.5,187.5 C 163.273,190.509 164.606,193.176 166.5,195.5C 169.708,194.391 172.708,193.058 175.5,191.5C 178.562,190.946 181.562,190.446 184.5,190C 185.517,191.049 185.684,192.216 185,193.5C 178.69,198.437 171.524,201.104 163.5,201.5C 160.375,197.257 158.375,192.59 157.5,187.5C 159.167,187.5 160.833,187.5 162.5,187.5 Z"/></g>
<g><path style="opacity:0.919" fill="#fefffe" d="M 404.5,193.5 C 410.093,193.193 415.593,193.527 421,194.5C 426.274,205.381 431.274,216.381 436,227.5C 441.59,216.653 446.923,205.653 452,194.5C 457.407,193.527 462.907,193.193 468.5,193.5C 468.5,213.167 468.5,232.833 468.5,252.5C 463.833,252.5 459.167,252.5 454.5,252.5C 454.667,241.162 454.5,229.828 454,218.5C 449.736,227.792 445.57,237.125 441.5,246.5C 437.955,247.791 434.455,247.791 431,246.5C 426.667,236.5 422.333,226.5 418,216.5C 417.5,228.495 417.333,240.495 417.5,252.5C 412.833,252.5 408.167,252.5 403.5,252.5C 403.179,232.757 403.513,213.091 404.5,193.5 Z"/></g>
<g><path style="opacity:0.926" fill="#fefffe" d="M 500.5,193.5 C 517.501,191.25 530.001,197.583 538,212.5C 542.881,237.074 532.881,250.741 508,253.5C 483.119,250.741 473.119,237.074 478,212.5C 482.657,202.667 490.157,196.333 500.5,193.5 Z M 503.5,206.5 C 513.068,204.929 519.568,208.595 523,217.5C 525.476,232.343 519.309,239.843 504.5,240C 492.929,235.007 489.429,226.507 494,214.5C 496.772,211.217 499.939,208.55 503.5,206.5 Z"/></g>
<g><path style="opacity:0.919" fill="#fefffe" d="M 541.5,193.5 C 546.875,193.172 552.208,193.505 557.5,194.5C 562.432,208.129 567.265,221.796 572,235.5C 577,221.833 582,208.167 587,194.5C 592.114,193.196 597.281,193.196 602.5,194.5C 594.963,213.738 587.296,232.905 579.5,252C 574.136,252.829 568.802,252.663 563.5,251.5C 555.591,232.355 548.258,213.022 541.5,193.5 Z"/></g>
<g><path style="opacity:0.91" fill="#fefffe" d="M 607.5,193.5 C 622.504,193.333 637.504,193.5 652.5,194C 653.464,198.066 653.797,202.233 653.5,206.5C 643.167,206.5 632.833,206.5 622.5,206.5C 622.5,210.167 622.5,213.833 622.5,217.5C 631.833,217.5 641.167,217.5 650.5,217.5C 650.5,221.5 650.5,225.5 650.5,229.5C 641.167,229.5 631.833,229.5 622.5,229.5C 622.5,233.167 622.5,236.833 622.5,240.5C 633.167,240.5 643.833,240.5 654.5,240.5C 654.5,244.5 654.5,248.5 654.5,252.5C 638.5,252.5 622.5,252.5 606.5,252.5C 606.179,232.757 606.513,213.091 607.5,193.5 Z"/></g>
<g><path style="opacity:0.919" fill="#fefffe" d="M 664.5,193.5 C 670.093,193.193 675.593,193.527 681,194.5C 686.274,205.381 691.274,216.381 696,227.5C 701.59,216.653 706.923,205.653 712,194.5C 717.407,193.527 722.907,193.193 728.5,193.5C 728.5,213.167 728.5,232.833 728.5,252.5C 723.833,252.5 719.167,252.5 714.5,252.5C 714.667,241.162 714.5,229.828 714,218.5C 709.736,227.792 705.57,237.125 701.5,246.5C 697.955,247.791 694.455,247.791 691,246.5C 686.667,236.5 682.333,226.5 678,216.5C 677.5,228.495 677.333,240.495 677.5,252.5C 672.833,252.5 668.167,252.5 663.5,252.5C 663.179,232.757 663.513,213.091 664.5,193.5 Z"/></g>
<g><path style="opacity:0.91" fill="#fefffe" d="M 739.5,193.5 C 754.504,193.333 769.504,193.5 784.5,194C 785.464,198.066 785.797,202.233 785.5,206.5C 775.167,206.5 764.833,206.5 754.5,206.5C 754.5,210.167 754.5,213.833 754.5,217.5C 763.833,217.5 773.167,217.5 782.5,217.5C 782.5,221.5 782.5,225.5 782.5,229.5C 773.167,229.5 763.833,229.5 754.5,229.5C 754.5,233.167 754.5,236.833 754.5,240.5C 765.167,240.5 775.833,240.5 786.5,240.5C 786.5,244.5 786.5,248.5 786.5,252.5C 770.5,252.5 754.5,252.5 738.5,252.5C 738.179,232.757 738.513,213.091 739.5,193.5 Z"/></g>
<g><path style="opacity:0.913" fill="#fefffe" d="M 795.5,193.5 C 799.846,193.334 804.179,193.501 808.5,194C 817,205.167 825.5,216.333 834,227.5C 834.333,216.5 834.667,205.5 835,194.5C 839.667,193.167 844.333,193.167 849,194.5C 849.5,213.83 849.667,233.164 849.5,252.5C 844.821,252.666 840.155,252.499 835.5,252C 827,240.833 818.5,229.667 810,218.5C 809.5,229.828 809.333,241.162 809.5,252.5C 804.5,252.5 799.5,252.5 794.5,252.5C 794.179,232.757 794.513,213.091 795.5,193.5 Z"/></g>
<g><path style="opacity:0.925" fill="#fefffe" d="M 856.5,193.5 C 872.837,193.333 889.17,193.5 905.5,194C 906.464,198.066 906.797,202.233 906.5,206.5C 900.5,206.5 894.5,206.5 888.5,206.5C 888.5,221.833 888.5,237.167 888.5,252.5C 883.5,252.5 878.5,252.5 873.5,252.5C 873.5,237.167 873.5,221.833 873.5,206.5C 867.5,206.5 861.5,206.5 855.5,206.5C 855.231,202.069 855.564,197.735 856.5,193.5 Z"/></g>
<g><path style="opacity:1" fill="#0c9141" d="M 203.5,218.5 C 206.051,218.668 206.718,219.668 205.5,221.5C 202.882,223.274 199.882,224.274 196.5,224.5C 196.112,226.685 195.112,228.518 193.5,230C 194.13,231.31 195.13,232.144 196.5,232.5C 200.912,233.742 205.246,233.409 209.5,231.5C 212.206,231.575 214.873,231.908 217.5,232.5C 217.328,234.492 217.995,236.158 219.5,237.5C 218.835,239.101 218.501,240.601 218.5,242C 212.239,245.571 205.573,248.238 198.5,250C 195.833,250.667 193.167,250.667 190.5,250C 187.607,246.604 184.274,243.771 180.5,241.5C 172.379,233.456 167.713,223.79 166.5,212.5C 166.369,211.761 166.536,211.094 167,210.5C 167.671,211.252 168.504,211.586 169.5,211.5C 171.402,212.511 173.402,212.678 175.5,212C 177.88,208.742 180.38,205.576 183,202.5C 183.483,203.448 183.649,204.448 183.5,205.5C 185.06,205.519 186.56,205.852 188,206.5C 194.695,204.719 201.528,203.219 208.5,202C 210.704,199.273 212.371,199.273 213.5,202C 211.328,207.512 207.662,211.846 202.5,215C 191.584,217.873 191.917,219.04 203.5,218.5 Z"/></g>
<g><path style="opacity:1" fill="#1d9149" d="M 242.5,220.5 C 241.842,219.602 241.176,218.602 240.5,217.5C 240.167,217.667 239.833,217.833 239.5,218C 239.154,220.94 238.154,223.44 236.5,225.5C 236.013,226.473 235.513,227.473 235,228.5C 233.855,227.316 232.688,227.316 231.5,228.5C 231.246,225.986 230.413,223.652 229,221.5C 225.646,217.07 221.98,216.403 218,219.5C 217.261,218.426 216.261,217.759 215,217.5C 213.073,218.861 210.906,219.694 208.5,220C 207.773,221.399 207.273,222.899 207,224.5C 205.961,223.756 205.461,222.756 205.5,221.5C 206.718,219.668 206.051,218.668 203.5,218.5C 203.369,217.624 203.702,216.957 204.5,216.5C 210.341,214.701 216.341,214.034 222.5,214.5C 222.665,210.818 222.499,207.152 222,203.5C 217.881,200.223 213.714,197.056 209.5,194C 211.167,193.333 212.833,193.333 214.5,194C 219.479,195.277 224.313,197.111 229,199.5C 231.135,198.873 233.302,198.373 235.5,198C 236.09,196.491 236.756,194.991 237.5,193.5C 238.216,194.311 239.05,194.978 240,195.5C 243.032,195.233 245.699,194.233 248,192.5C 248.607,197.863 247.607,202.863 245,207.5C 244.582,211.934 243.749,216.267 242.5,220.5 Z"/></g>
<g><path style="opacity:1" fill="#f1faf6" d="M 236.5,225.5 C 234.436,224.942 232.77,223.775 231.5,222C 232.028,219.138 232.695,216.304 233.5,213.5C 235.625,210.732 237.291,210.899 238.5,214C 237.868,217.88 237.201,221.713 236.5,225.5 Z"/></g>
<g><path style="opacity:1" fill="#8ec5a6" d="M 209.5,231.5 C 205.246,233.409 200.912,233.742 196.5,232.5C 200.842,232.261 205.176,231.927 209.5,231.5 Z"/></g>
<g><path style="opacity:1" fill="#9dcdb1" d="M 255.5,239.5 C 250.146,241.507 244.479,242.507 238.5,242.5C 243.921,240.852 249.588,239.852 255.5,239.5 Z"/></g>
<g><path style="opacity:1" fill="#e09491" d="M 300.5,241.5 C 295.668,242.4 290.668,243.066 285.5,243.5C 286.263,242.732 287.263,242.232 288.5,242C 292.486,241.501 296.486,241.334 300.5,241.5 Z"/></g>
<g><path style="opacity:1" fill="#d6281e" d="M 337.5,239.5 C 336.025,243.783 334.025,247.783 331.5,251.5C 330.167,251.5 328.833,251.5 327.5,251.5C 327.167,253.5 326.833,255.5 326.5,257.5C 324.692,257.491 323.025,257.991 321.5,259C 322.973,259.71 323.64,260.876 323.5,262.5C 321.984,265.533 319.984,268.2 317.5,270.5C 314.15,270.335 310.817,270.502 307.5,271C 299.987,273.336 292.321,274.836 284.5,275.5C 283.167,275.5 281.833,275.5 280.5,275.5C 280.5,273.5 280.5,271.5 280.5,269.5C 278.901,269.232 277.568,269.566 276.5,270.5C 274.901,269.438 273.234,269.438 271.5,270.5C 269.781,269.978 268.448,268.978 267.5,267.5C 267.5,266.5 267.5,265.5 267.5,264.5C 265.167,264.5 262.833,264.5 260.5,264.5C 260.5,263.5 260.5,262.5 260.5,261.5C 261.833,261.5 263.167,261.5 264.5,261.5C 265.434,260.432 265.768,259.099 265.5,257.5C 263.473,257.662 261.473,257.495 259.5,257C 260.056,256.617 260.389,256.117 260.5,255.5C 261.833,255.5 263.167,255.5 264.5,255.5C 264.5,254.167 264.5,252.833 264.5,251.5C 261.119,251.46 257.786,251.793 254.5,252.5C 254.216,254.415 254.549,256.081 255.5,257.5C 255.505,261.534 255.838,265.534 256.5,269.5C 255.122,270.234 253.622,270.901 252,271.5C 251.998,268.949 251.164,266.949 249.5,265.5C 248.651,261.899 247.984,258.232 247.5,254.5C 245.5,254.833 243.5,255.167 241.5,255.5C 241.195,259.02 240.362,262.353 239,265.5C 237.121,263.473 235.954,261.14 235.5,258.5C 233.167,258.5 230.833,258.5 228.5,258.5C 227.698,259.952 227.198,261.618 227,263.5C 225.371,263.836 223.871,263.17 222.5,261.5C 220.833,260.167 219.167,260.167 217.5,261.5C 215.5,261.833 213.5,262.167 211.5,262.5C 211.575,265.206 211.908,267.873 212.5,270.5C 212.41,273.152 213.076,275.485 214.5,277.5C 214.5,277.833 214.5,278.167 214.5,278.5C 215.72,280.284 215.72,281.95 214.5,283.5C 209.541,283.984 205.041,284.984 201,286.5C 200.337,291.001 200.837,291.335 202.5,287.5C 203.192,288.025 203.692,288.692 204,289.5C 206.781,288.445 209.948,287.779 213.5,287.5C 217.233,287.13 220.899,286.463 224.5,285.5C 225.568,286.434 226.901,286.768 228.5,286.5C 228.5,285.5 228.5,284.5 228.5,283.5C 229.5,283.5 230.5,283.5 231.5,283.5C 233.677,284.279 235.344,285.613 236.5,287.5C 220.394,292.721 204.394,298.221 188.5,304C 179.169,307.668 170.169,311.835 161.5,316.5C 139.359,310.106 120.025,299.106 103.5,283.5C 162.483,262.668 223.149,249.334 285.5,243.5C 290.668,243.066 295.668,242.4 300.5,241.5C 312.849,241.11 325.183,240.443 337.5,239.5 Z"/></g>
<g><path style="opacity:1" fill="#f8e8e5" d="M 298.5,261.5 C 298.354,257.481 298.021,253.481 297.5,249.5C 295.833,249.5 294.167,249.5 292.5,249.5C 292.36,247.876 293.027,246.71 294.5,246C 298.145,245.281 301.812,244.781 305.5,244.5C 305.5,245.833 305.5,247.167 305.5,248.5C 304.167,248.5 302.833,248.5 301.5,248.5C 301.927,252.824 302.261,257.158 302.5,261.5C 301.167,261.5 299.833,261.5 298.5,261.5 Z"/></g>
<g><path style="opacity:1" fill="#db9790" d="M 286.5,248.5 C 285.167,248.5 283.833,248.5 282.5,248.5C 282.664,251.187 282.497,253.854 282,256.5C 281.283,255.956 280.783,255.289 280.5,254.5C 281.468,252.393 281.802,250.059 281.5,247.5C 283.415,247.216 285.081,247.549 286.5,248.5 Z"/></g>
<g><path style="opacity:1" fill="#f8ecea" d="M 286.5,248.5 C 287.159,251.455 287.492,254.455 287.5,257.5C 287.5,259.5 287.5,261.5 287.5,263.5C 286.167,263.5 284.833,263.5 283.5,263.5C 282.066,261.51 280.232,259.843 278,258.5C 277.503,260.81 277.337,263.143 277.5,265.5C 276.167,265.5 274.833,265.5 273.5,265.5C 272.203,260.263 271.536,254.93 271.5,249.5C 273.199,249.34 274.866,249.506 276.5,250C 277.733,251.667 279.067,253.167 280.5,254.5C 280.783,255.289 281.283,255.956 282,256.5C 282.497,253.854 282.664,251.187 282.5,248.5C 283.833,248.5 285.167,248.5 286.5,248.5 Z"/></g>
<g><path style="opacity:1" fill="#f9e9e7" d="M 260.5,255.5 C 258.952,255.821 258.285,256.821 258.5,258.5C 260.5,258.5 262.5,258.5 264.5,258.5C 264.5,259.5 264.5,260.5 264.5,261.5C 263.167,261.5 261.833,261.5 260.5,261.5C 260.5,262.5 260.5,263.5 260.5,264.5C 262.833,264.5 265.167,264.5 267.5,264.5C 267.5,265.5 267.5,266.5 267.5,267.5C 263.864,268.326 260.197,268.992 256.5,269.5C 255.838,265.534 255.505,261.534 255.5,257.5C 255.5,256.167 255.5,254.833 255.5,253.5C 257.342,253.277 259.175,252.943 261,252.5C 261.833,252.833 262.667,253.167 263.5,253.5C 262.398,254.176 261.398,254.842 260.5,255.5 Z"/></g>
<g><path style="opacity:1" fill="#e7b3ae" d="M 260.5,255.5 C 261.398,254.842 262.398,254.176 263.5,253.5C 262.667,253.167 261.833,252.833 261,252.5C 259.175,252.943 257.342,253.277 255.5,253.5C 255.5,254.833 255.5,256.167 255.5,257.5C 254.549,256.081 254.216,254.415 254.5,252.5C 257.786,251.793 261.119,251.46 264.5,251.5C 264.5,252.833 264.5,254.167 264.5,255.5C 263.167,255.5 261.833,255.5 260.5,255.5 Z"/></g>
<g><path style="opacity:1" fill="#d06960" d="M 292.5,249.5 C 294.167,249.5 295.833,249.5 297.5,249.5C 298.021,253.481 298.354,257.481 298.5,261.5C 297.313,258.054 296.646,254.387 296.5,250.5C 294.901,250.768 293.568,250.434 292.5,249.5 Z"/></g>
<g><path style="opacity:1" fill="#da908a" d="M 260.5,255.5 C 260.389,256.117 260.056,256.617 259.5,257C 261.473,257.495 263.473,257.662 265.5,257.5C 265.768,259.099 265.434,260.432 264.5,261.5C 264.5,260.5 264.5,259.5 264.5,258.5C 262.5,258.5 260.5,258.5 258.5,258.5C 258.285,256.821 258.952,255.821 260.5,255.5 Z"/></g>
<g><path style="opacity:0.997" fill="#db4a3c" d="M 331.5,251.5 C 329.555,255.736 326.888,259.403 323.5,262.5C 323.64,260.876 322.973,259.71 321.5,259C 323.025,257.991 324.692,257.491 326.5,257.5C 326.833,255.5 327.167,253.5 327.5,251.5C 328.833,251.5 330.167,251.5 331.5,251.5 Z"/></g>
<g><path style="opacity:1" fill="#f8e8e5" d="M 249.5,265.5 C 251.623,270.011 250.289,271.845 245.5,271C 244.773,269.601 244.273,268.101 244,266.5C 242.92,268.553 242.086,270.72 241.5,273C 240.365,273.749 239.365,273.583 238.5,272.5C 238.081,271.328 237.415,270.328 236.5,269.5C 235.548,271.045 235.215,272.712 235.5,274.5C 234.167,274.5 232.833,274.5 231.5,274.5C 231.567,273.041 231.234,271.708 230.5,270.5C 230.59,267.848 229.924,265.515 228.5,263.5C 228.5,261.833 228.5,260.167 228.5,258.5C 230.833,258.5 233.167,258.5 235.5,258.5C 235.954,261.14 237.121,263.473 239,265.5C 240.362,262.353 241.195,259.02 241.5,255.5C 243.5,255.167 245.5,254.833 247.5,254.5C 247.984,258.232 248.651,261.899 249.5,265.5 Z"/></g>
<g><path style="opacity:1" fill="#f9eae8" d="M 217.5,261.5 C 218.833,261.5 220.167,261.5 221.5,261.5C 221.5,262.5 221.5,263.5 221.5,264.5C 219.516,264.383 217.85,265.05 216.5,266.5C 218.396,267.466 220.396,267.799 222.5,267.5C 222.5,268.5 222.5,269.5 222.5,270.5C 221.167,270.5 219.833,270.5 218.5,270.5C 218.5,271.833 218.5,273.167 218.5,274.5C 220.5,274.167 222.5,273.833 224.5,273.5C 224.5,274.833 224.5,276.167 224.5,277.5C 221.14,277.616 217.807,277.949 214.5,278.5C 214.5,278.167 214.5,277.833 214.5,277.5C 214.59,274.848 213.924,272.515 212.5,270.5C 211.908,267.873 211.575,265.206 211.5,262.5C 213.5,262.167 215.5,261.833 217.5,261.5 Z"/></g>
<g><path style="opacity:1" fill="#e09a94" d="M 217.5,261.5 C 219.167,260.167 220.833,260.167 222.5,261.5C 222.737,262.791 222.404,263.791 221.5,264.5C 221.5,263.5 221.5,262.5 221.5,261.5C 220.167,261.5 218.833,261.5 217.5,261.5 Z"/></g>
<g><path style="opacity:1" fill="#e6a49e" d="M 287.5,257.5 C 288.468,259.607 288.802,261.941 288.5,264.5C 286.585,264.784 284.919,264.451 283.5,263.5C 284.833,263.5 286.167,263.5 287.5,263.5C 287.5,261.5 287.5,259.5 287.5,257.5 Z"/></g>
<g><path style="opacity:1" fill="#ce665c" d="M 228.5,263.5 C 229.924,265.515 230.59,267.848 230.5,270.5C 229.076,268.485 228.41,266.152 228.5,263.5 Z"/></g>
<g><path style="opacity:0.985" fill="#f7f4f2" d="M 317.5,270.5 C 315.628,273.582 313.295,276.249 310.5,278.5C 309.726,277.853 308.726,277.52 307.5,277.5C 260.985,286.008 215.985,299.341 172.5,317.5C 171.702,317.957 171.369,318.624 171.5,319.5C 168.095,318.752 164.762,317.752 161.5,316.5C 170.169,311.835 179.169,307.668 188.5,304C 204.394,298.221 220.394,292.721 236.5,287.5C 252.432,282.851 268.432,278.851 284.5,275.5C 292.321,274.836 299.987,273.336 307.5,271C 310.817,270.502 314.15,270.335 317.5,270.5 Z"/></g>
<g><path style="opacity:1" fill="#faeae8" d="M 200.5,265.5 C 202.167,265.5 203.833,265.5 205.5,265.5C 205.755,270.957 205.088,276.29 203.5,281.5C 201.298,282.78 199.132,282.78 197,281.5C 194.75,277.332 192.25,273.332 189.5,269.5C 191.074,268.369 192.741,268.202 194.5,269C 195.63,271.428 197.13,273.595 199,275.5C 200.405,272.381 200.905,269.048 200.5,265.5 Z"/></g>
<g><path style="opacity:1" fill="#c85d56" d="M 212.5,270.5 C 213.924,272.515 214.59,274.848 214.5,277.5C 213.076,275.485 212.41,273.152 212.5,270.5 Z"/></g>
<g><path style="opacity:1" fill="#d12f24" d="M 228.5,258.5 C 228.5,260.167 228.5,261.833 228.5,263.5C 228.41,266.152 229.076,268.485 230.5,270.5C 231.234,271.708 231.567,273.041 231.5,274.5C 232.833,274.5 234.167,274.5 235.5,274.5C 235.215,272.712 235.548,271.045 236.5,269.5C 237.415,270.328 238.081,271.328 238.5,272.5C 239.365,273.583 240.365,273.749 241.5,273C 242.086,270.72 242.92,268.553 244,266.5C 244.273,268.101 244.773,269.601 245.5,271C 250.289,271.845 251.623,270.011 249.5,265.5C 251.164,266.949 251.998,268.949 252,271.5C 253.622,270.901 255.122,270.234 256.5,269.5C 260.197,268.992 263.864,268.326 267.5,267.5C 268.448,268.978 269.781,269.978 271.5,270.5C 267.86,270.428 265.027,271.761 263,274.5C 262.692,273.692 262.192,273.025 261.5,272.5C 258.205,273.449 254.872,273.449 251.5,272.5C 251.34,274.199 251.506,275.866 252,277.5C 261.053,276.799 270.22,275.799 279.5,274.5C 279.5,273.167 279.5,271.833 279.5,270.5C 278.5,270.5 277.5,270.5 276.5,270.5C 277.568,269.566 278.901,269.232 280.5,269.5C 280.5,271.5 280.5,273.5 280.5,275.5C 281.833,275.5 283.167,275.5 284.5,275.5C 268.432,278.851 252.432,282.851 236.5,287.5C 235.344,285.613 233.677,284.279 231.5,283.5C 232.611,282.34 233.611,281.007 234.5,279.5C 235.192,280.025 235.692,280.692 236,281.5C 237.626,281.146 239.459,281.146 241.5,281.5C 241.5,279.833 241.5,278.167 241.5,276.5C 239.61,276.297 238.11,276.963 237,278.5C 236.667,277.833 236.333,277.167 236,276.5C 233.929,277.525 231.762,278.358 229.5,279C 228.62,280.356 228.286,281.856 228.5,283.5C 228.5,284.5 228.5,285.5 228.5,286.5C 226.901,286.768 225.568,286.434 224.5,285.5C 220.899,286.463 217.233,287.13 213.5,287.5C 213.833,286.167 214.167,284.833 214.5,283.5C 215.72,281.95 215.72,280.284 214.5,278.5C 217.807,277.949 221.14,277.616 224.5,277.5C 224.5,276.167 224.5,274.833 224.5,273.5C 222.5,273.833 220.5,274.167 218.5,274.5C 218.5,273.167 218.5,271.833 218.5,270.5C 219.833,270.5 221.167,270.5 222.5,270.5C 222.5,269.5 222.5,268.5 222.5,267.5C 220.396,267.799 218.396,267.466 216.5,266.5C 217.85,265.05 219.516,264.383 221.5,264.5C 222.404,263.791 222.737,262.791 222.5,261.5C 223.871,263.17 225.371,263.836 227,263.5C 227.198,261.618 227.698,259.952 228.5,258.5 Z"/></g>
<g><path style="opacity:1" fill="#d9746a" d="M 224.5,285.5 C 224.631,284.761 224.464,284.094 224,283.5C 222.333,284.833 220.667,284.833 219,283.5C 218.692,284.308 218.192,284.975 217.5,285.5C 216.548,283.955 216.215,282.288 216.5,280.5C 219.893,279.556 223.226,279.222 226.5,279.5C 227.466,281.396 227.799,283.396 227.5,285.5C 226.5,285.5 225.5,285.5 224.5,285.5 Z"/></g>
<g><path style="opacity:1" fill="#e16b63" d="M 243.5,274.5 C 245.167,274.5 246.833,274.5 248.5,274.5C 249.575,278.938 247.908,280.938 243.5,280.5C 243.5,278.5 243.5,276.5 243.5,274.5 Z"/></g>
<g><path style="opacity:1" fill="#d6766e" d="M 231.5,283.5 C 230.5,283.5 229.5,283.5 228.5,283.5C 228.286,281.856 228.62,280.356 229.5,279C 231.762,278.358 233.929,277.525 236,276.5C 236.333,277.167 236.667,277.833 237,278.5C 238.11,276.963 239.61,276.297 241.5,276.5C 241.5,278.167 241.5,279.833 241.5,281.5C 239.459,281.146 237.626,281.146 236,281.5C 235.692,280.692 235.192,280.025 234.5,279.5C 233.611,281.007 232.611,282.34 231.5,283.5 Z"/></g>
<g><path style="opacity:1" fill="#d5726a" d="M 276.5,270.5 C 277.5,270.5 278.5,270.5 279.5,270.5C 279.5,271.833 279.5,273.167 279.5,274.5C 270.22,275.799 261.053,276.799 252,277.5C 251.506,275.866 251.34,274.199 251.5,272.5C 254.872,273.449 258.205,273.449 261.5,272.5C 262.192,273.025 262.692,273.692 263,274.5C 265.027,271.761 267.86,270.428 271.5,270.5C 273.234,269.438 274.901,269.438 276.5,270.5 Z"/></g>
<g><path style="opacity:1" fill="#f9eae7" d="M 174.5,272.5 C 185.895,273.091 188.562,278.258 182.5,288C 172.375,290.879 168.208,287.046 170,276.5C 171.397,274.93 172.897,273.596 174.5,272.5 Z"/></g>
<g><path style="opacity:1" fill="#d5291f" d="M 180.5,283.5 C 178.833,284.833 177.167,284.833 175.5,283.5C 175.5,281.833 175.5,280.167 175.5,278.5C 179.5,277.833 181.167,279.5 180.5,283.5 Z"/></g>
<g><path style="opacity:1" fill="#bf473c" d="M 180.5,283.5 C 181.167,279.5 179.5,277.833 175.5,278.5C 175.5,280.167 175.5,281.833 175.5,283.5C 173.623,282.341 173.123,280.674 174,278.5C 180.05,276.005 182.217,277.672 180.5,283.5 Z"/></g>
<g><path style="opacity:1" fill="#f8ebea" d="M 160.5,292.5 C 160.769,290.571 160.269,288.905 159,287.5C 158.503,290.146 158.336,292.813 158.5,295.5C 154.871,296.769 152.371,295.436 151,291.5C 151,293.5 151,295.5 151,297.5C 149.817,298.731 148.651,298.731 147.5,297.5C 145.967,293.568 144.634,289.568 143.5,285.5C 144.079,283.539 145.413,282.539 147.5,282.5C 149.494,283.827 151.161,285.494 152.5,287.5C 152.908,288.643 153.575,289.643 154.5,290.5C 155.466,288.604 155.799,286.604 155.5,284.5C 154.555,279.105 156.555,277.439 161.5,279.5C 162.91,283.637 164.243,287.804 165.5,292C 163.868,294.859 162.202,295.026 160.5,292.5 Z"/></g>
<g><path style="opacity:1" fill="#bc5c55" d="M 155.5,284.5 C 155.799,286.604 155.466,288.604 154.5,290.5C 153.575,289.643 152.908,288.643 152.5,287.5C 153.9,286.9 154.9,285.9 155.5,284.5 Z"/></g>
<g><path style="opacity:1" fill="#de8078" d="M 214.5,283.5 C 214.167,284.833 213.833,286.167 213.5,287.5C 209.948,287.779 206.781,288.445 204,289.5C 203.692,288.692 203.192,288.025 202.5,287.5C 200.837,291.335 200.337,291.001 201,286.5C 205.041,284.984 209.541,283.984 214.5,283.5 Z"/></g>
<g><path style="opacity:1" fill="#e99990" d="M 195.5,286.5 C 198.151,288.461 197.984,290.128 195,291.5C 194.36,289.735 194.527,288.068 195.5,286.5 Z"/></g>
<g><path style="opacity:1" fill="#cd6f69" d="M 160.5,292.5 C 159.833,293.5 159.167,294.5 158.5,295.5C 158.336,292.813 158.503,290.146 159,287.5C 160.269,288.905 160.769,290.571 160.5,292.5 Z"/></g>
<g><path style="opacity:1" fill="#139242" d="M 310.5,278.5 C 292.635,296.775 271.302,309.442 246.5,316.5C 243.848,316.41 241.515,317.076 239.5,318.5C 228.189,321.704 216.522,323.038 204.5,322.5C 193.36,322.85 182.36,321.85 171.5,319.5C 171.369,318.624 171.702,317.957 172.5,317.5C 215.985,299.341 260.985,286.008 307.5,277.5C 308.726,277.52 309.726,277.853 310.5,278.5 Z"/></g>
<g><path style="opacity:0.008" fill="#cee6d9" d="M 246.5,316.5 C 244.485,317.924 242.152,318.59 239.5,318.5C 241.515,317.076 243.848,316.41 246.5,316.5 Z"/></g>
</svg>
