<svg xmlns="http://www.w3.org/2000/svg" viewBox="0 0 583.1 176.25"><defs><style>.cls-1{fill:#2b2b2b;}.cls-2{fill:#ef4136;}.cls-3{fill:#fff;}.cls-4{fill:#006838;}</style></defs><g id="Layer_2" data-name="Layer 2"><g id="Layer_1-2" data-name="Layer 1"><path class="cls-1" d="M145.31,11.12a16.19,16.19,0,0,1,4.75,11.73,15.77,15.77,0,0,1-4.75,11.61,15.78,15.78,0,0,1-11.6,4.74H91.51V159.73a15.56,15.56,0,0,1-4.87,11.6,16.23,16.23,0,0,1-11.74,4.75,16.2,16.2,0,0,1-16.35-16.35V39.2H16.35a15.78,15.78,0,0,1-11.6-4.74A15.77,15.77,0,0,1,0,22.85,16.19,16.19,0,0,1,4.75,11.12a15.57,15.57,0,0,1,11.6-4.88H133.71A15.57,15.57,0,0,1,145.31,11.12Z"/><path class="cls-2" d="M206.73,7.82a84.21,84.21,0,0,1,74.11,24,83.64,83.64,0,0,1,18.33,27.56A81.4,81.4,0,0,1,305.36,92,81,81,0,0,1,301,118.19a87.3,87.3,0,0,1-12.26,23.6,83.67,83.67,0,0,1-32.7,26.51,84.62,84.62,0,0,1-41.14,7.78,83.23,83.23,0,0,1-21.63-4.48,87.11,87.11,0,0,1-36.13-24,81.28,81.28,0,0,1-12.4-18.2,88.44,88.44,0,0,1-7-20.31,82.47,82.47,0,0,1-1.71-21.23,91.43,91.43,0,0,1,3.56-21.1,77.26,77.26,0,0,1,8.84-19.64,49.54,49.54,0,0,1,4.48-6.86h.26A78.74,78.74,0,0,1,176.93,18.9,91.3,91.3,0,0,1,206.73,7.82Z"/><path class="cls-3" d="M284.2,103.52a60.84,60.84,0,0,1-2.18,8.2,67.61,67.61,0,0,1-9.41,18.17,63.21,63.21,0,0,1-24.94,20.18,64.33,64.33,0,0,1-27.39,6.12c-1.33,0-2.69-.05-4-.13a63.57,63.57,0,0,1-16.33-3.39A67.31,67.31,0,0,1,172,134.16a60.91,60.91,0,0,1-9.29-13.63,67.51,67.51,0,0,1-5.36-15.61c-.1-.46-.19-.93-.28-1.4Z"/><path class="cls-1" d="M420.93,153.49a15.28,15.28,0,0,1-4.61,11.21,17.31,17.31,0,0,1-11.21,5.14h-2.38a82.82,82.82,0,0,1-32.17-7.38,85.72,85.72,0,0,1-26.19-18.33,87.12,87.12,0,0,1-17.67-26.64,81.52,81.52,0,0,1-6.51-32.57V16.35A15.7,15.7,0,0,1,325,4.75,16,16,0,0,1,336.67,0,16.4,16.4,0,0,1,348.5,4.75a15.49,15.49,0,0,1,4.92,11.6l-.27,68.57a49.63,49.63,0,0,0,4,19.78,53.33,53.33,0,0,0,26.5,27.56A47.18,47.18,0,0,0,403,136.87h1.32a16.66,16.66,0,0,1,16.61,16.62Z"/><path class="cls-1" d="M566.75,6.24a15.58,15.58,0,0,1,11.6,4.88,16.23,16.23,0,0,1,4.75,11.73V91.42a81.19,81.19,0,0,1-6.73,32.84,85.67,85.67,0,0,1-45.1,45.09,84.1,84.1,0,0,1-65.93,0,85.67,85.67,0,0,1-45.1-45.09,81.35,81.35,0,0,1-6.72-32.84V22.85a16,16,0,0,1,4.88-11.73,16,16,0,0,1,11.73-4.88,15.6,15.6,0,0,1,11.61,4.87,16.2,16.2,0,0,1,4.75,11.71V91.26a49.59,49.59,0,0,0,4.08,20.13,54.27,54.27,0,0,0,11.08,16.46,51.4,51.4,0,0,0,36.79,15.26,50.23,50.23,0,0,0,20-4.08,52.77,52.77,0,0,0,27.83-27.64,49.75,49.75,0,0,0,4.08-20.13h-.26V22.82A15.93,15.93,0,0,1,555,11.11,16,16,0,0,1,566.75,6.24Z"/><path class="cls-4" d="M91.51,39.2q-2.78,7.11-5.4,14.6c-1.69,4.85-24.38,92.87-22.3,85.44h0l-5.26,20.49a16.48,16.48,0,0,0,33,0Z"/><path class="cls-3" d="M200.48,64.66h0A1.68,1.68,0,0,1,198.8,63a8.2,8.2,0,0,0-2.54-6,7.69,7.69,0,0,0-5.6-2.23,8.1,8.1,0,0,0-7.54,7.6,1.67,1.67,0,0,1-3.34-.24,11.49,11.49,0,0,1,10.75-10.7,11.15,11.15,0,0,1,8.05,3.16,11.58,11.58,0,0,1,3.57,8.4A1.67,1.67,0,0,1,200.48,64.66Z"/><path class="cls-3" d="M259.87,64.66h0A1.68,1.68,0,0,1,258.2,63a8.24,8.24,0,0,0-2.54-6,7.7,7.7,0,0,0-5.61-2.23,8.1,8.1,0,0,0-7.53,7.6,1.67,1.67,0,0,1-3.34-.24,11.48,11.48,0,0,1,10.75-10.7A11.15,11.15,0,0,1,258,54.59a11.58,11.58,0,0,1,3.57,8.4A1.68,1.68,0,0,1,259.87,64.66Z"/></g></g></svg>