<?xml version="1.0" encoding="UTF-8"?>
<svg id="Layer_1" data-name="Layer 1" xmlns="http://www.w3.org/2000/svg" viewBox="0 0 1000 516.12">
  <defs>
    <style>
      .cls-1 {
        fill: #fff;
      }

      .cls-2 {
        fill: #fffeff;
      }

      .cls-3 {
        fill: #282828;
      }

      .cls-4 {
        fill: #ef4136;
      }

      .cls-5 {
        fill: #006838;
      }
    </style>
  </defs>
  <rect class="cls-3" x="-1.2" width="1000.3" height="518.51"/>
  <g>
    <path class="cls-2" d="M312.82,167.77c3.16,3.26,4.75,7.17,4.75,11.74s-1.58,8.44-4.75,11.6-7.03,4.75-11.6,4.75h-42.2v120.52c0,4.57-1.63,8.44-4.88,11.6-3.26,3.16-7.17,4.75-11.74,4.75s-8.44-1.58-11.6-4.75-4.75-7.03-4.75-11.6v-120.52h-42.2c-4.57,0-8.44-1.58-11.6-4.75s-4.75-7.03-4.75-11.6,1.58-8.48,4.75-11.74c3.16-3.25,7.03-4.88,11.6-4.88h117.36c4.57,0,8.44,1.63,11.6,4.88Z"/>
    <path class="cls-4" d="M374.24,164.47c13.54-2.28,26.86-1.32,39.95,2.9,13.1,4.22,24.48,11.25,34.15,21.1,7.91,7.91,14.02,17.1,18.33,27.56,4.31,10.46,6.37,21.32,6.2,32.57,0,8.97-1.45,17.72-4.35,26.24-2.9,8.53-6.99,16.4-12.26,23.6-8.62,11.6-19.52,20.44-32.7,26.5-13.19,6.07-26.9,8.66-41.14,7.78-7.38-.53-14.6-2.02-21.63-4.48-7.03-2.46-13.58-5.71-19.65-9.76-6.07-4.04-11.56-8.79-16.48-14.24-4.92-5.45-9.06-11.51-12.4-18.2-3.16-6.5-5.5-13.27-6.99-20.31-1.5-7.03-2.07-14.11-1.71-21.23.35-7.12,1.54-14.15,3.56-21.1,2.02-6.94,4.97-13.49,8.83-19.65,1.23-2.28,2.72-4.57,4.48-6.86h.26c6.5-8.79,14.41-15.91,23.74-21.36,9.32-5.45,19.25-9.14,29.8-11.08Z"/>
    <path class="cls-1" d="M451.7,260.17c-.53,2.76-1.25,5.51-2.17,8.2-2.22,6.54-5.39,12.65-9.42,18.16-6.63,8.92-14.79,15.52-24.94,20.18-8.94,4.11-17.9,6.12-27.38,6.12-1.34,0-2.7-.04-4.05-.12-5.56-.41-11.04-1.55-16.33-3.4-5.43-1.89-10.52-4.42-15.14-7.51-4.67-3.11-8.95-6.81-12.73-11-3.68-4.07-6.8-8.65-9.29-13.63-2.42-4.98-4.22-10.23-5.36-15.6-.1-.47-.19-.94-.28-1.4h127.09Z"/>
    <path class="cls-2" d="M588.44,310.14c0,4.4-1.54,8.13-4.61,11.21s-6.82,4.79-11.21,5.14h-2.37c-11.43-.35-22.15-2.81-32.17-7.38-10.02-4.57-18.75-10.68-26.19-18.33-7.44-7.65-13.33-16.52-17.67-26.64-4.34-10.11-6.51-20.97-6.51-32.57v-68.57c0-4.57,1.59-8.44,4.78-11.6,3.19-3.16,7.09-4.75,11.7-4.75s8.55,1.58,11.83,4.75,4.92,7.03,4.92,11.6l-.26,68.57c0,7.03,1.32,13.63,3.96,19.78,2.64,6.16,6.2,11.56,10.68,16.22,4.48,4.66,9.76,8.44,15.82,11.34,6.07,2.9,12.53,4.44,19.38,4.61h1.32c4.57,0,8.48,1.63,11.74,4.88,3.25,3.26,4.88,7.17,4.88,11.74Z"/>
    <path class="cls-2" d="M734.25,162.89c4.57,0,8.44,1.63,11.6,4.88,3.17,3.26,4.75,7.17,4.75,11.74v68.57c0,11.6-2.24,22.55-6.73,32.83-4.48,10.29-10.55,19.25-18.2,26.9-7.65,7.65-16.61,13.71-26.9,18.2s-21.23,6.73-32.83,6.73-22.81-2.24-33.1-6.73-19.25-10.55-26.9-18.2c-7.65-7.65-13.71-16.61-18.2-26.9-4.48-10.29-6.73-21.23-6.73-32.83v-68.57c0-4.57,1.62-8.48,4.88-11.74s7.16-4.88,11.74-4.88,8.44,1.62,11.6,4.87c3.16,3.25,4.75,7.15,4.75,11.71v68.44c0,7.19,1.36,13.91,4.09,20.14,2.72,6.23,6.42,11.71,11.08,16.45,4.66,4.74,10.15,8.47,16.48,11.19,6.33,2.72,13.1,4.08,20.31,4.08s13.71-1.36,20.04-4.08,11.87-6.45,16.61-11.19,8.48-10.22,11.21-16.45c2.72-6.23,4.09-12.94,4.09-20.14h-.26v-68.44c0-4.56,1.62-8.46,4.88-11.71,3.25-3.25,7.16-4.87,11.74-4.87Z"/>
    <path class="cls-5" d="M259.02,195.86c-1.85,4.74-3.66,9.61-5.4,14.6-1.69,4.84-24.38,92.87-22.3,85.43h0s-4.8,18.7-5.26,20.49c.1,8.97,7.46,16.28,16.35,16.35,8.99.07,16.51-7.28,16.61-16.35v-120.52Z"/>
    <g>
      <path class="cls-1" d="M367.98,221.31h0c-.92,0-1.67-.75-1.67-1.67,0-2.28-.9-4.4-2.54-5.99-1.54-1.49-3.57-2.3-5.6-2.22-3.94.14-7.25,3.48-7.54,7.59-.06.92-.88,1.63-1.79,1.55-.92-.07-1.61-.86-1.55-1.79.41-5.79,5.13-10.49,10.75-10.7,2.92-.1,5.86,1.04,8.05,3.16,2.3,2.22,3.57,5.2,3.57,8.4,0,.92-.75,1.67-1.67,1.67Z"/>
      <path class="cls-1" d="M427.38,221.31h0c-.92,0-1.67-.75-1.67-1.67,0-2.28-.9-4.4-2.54-5.99-1.54-1.49-3.57-2.3-5.6-2.22-3.94.14-7.25,3.48-7.54,7.59-.06.92-.88,1.63-1.79,1.55-.92-.07-1.61-.86-1.55-1.79.41-5.79,5.13-10.49,10.75-10.7,2.92-.1,5.86,1.04,8.05,3.16,2.3,2.22,3.57,5.2,3.57,8.4,0,.92-.75,1.67-1.67,1.67Z"/>
    </g>
  </g>
</svg>