<svg width="32" height="31" viewBox="0 0 32 31" fill="none" xmlns="http://www.w3.org/2000/svg">
<path d="M30.2851 20.54C30.2851 20.54 19.1756 15.4902 19.1362 15.4775C18.2102 15.1621 17.2053 15.3948 16.5134 16.0868C15.8214 16.7788 15.5886 17.7836 15.9511 18.8229L20.9678 29.8574C21.1701 30.3038 21.6115 30.5938 22.1024 30.6028H22.1266C22.6074 30.6028 23.0488 30.3305 23.265 29.8993L25.6195 25.1904L30.3283 22.836C30.7672 22.6159 31.0406 22.1656 31.0317 21.6747C31.0228 21.1849 30.7328 20.7436 30.2864 20.54H30.2851ZM24.102 23.1044C23.8565 23.2278 23.6555 23.4275 23.5334 23.673L22.18 26.3797L18.3081 17.8879L26.8062 21.7522L24.1033 23.1031L24.102 23.1044ZM16.9267 28.0066C16.708 28.0257 16.4879 28.0397 16.2653 28.0486C15.4156 27.2078 13.1998 24.8457 11.6557 21.6988H12.5867C13.2889 21.6988 13.8587 21.1302 13.8587 20.4268C13.8587 19.7234 13.2889 19.1548 12.5867 19.1548H10.6406C10.2705 17.9439 10.0428 16.6617 10.0428 15.3389C10.0428 14.016 10.2717 12.7351 10.6432 11.5229H20.8915C21.0416 12.0152 21.1688 12.5189 21.2667 13.0328C21.399 13.7235 22.0668 14.1788 22.7537 14.044C23.4431 13.913 23.8959 13.2465 23.7649 12.557C23.6988 12.2072 23.6199 11.8625 23.5321 11.5229H27.848C27.8645 11.5229 27.8823 11.5229 27.8989 11.5229C28.2792 12.7288 28.484 14.0109 28.484 15.3401C28.484 15.7306 28.4662 16.1161 28.4318 16.4977C28.3695 17.1973 28.8846 17.8154 29.5842 17.879C30.2864 17.9477 30.9033 17.4262 30.9656 16.7266C31.0063 16.27 31.0279 15.807 31.0279 15.3401C31.0305 6.92085 24.1834 0.0737305 15.7667 0.0737305C7.35 0.0737305 0.50293 6.92085 0.50293 15.3376C0.50293 23.7544 7.35 30.6015 15.7654 30.6015C16.2322 30.6015 16.694 30.5799 17.1493 30.5392C17.8489 30.4768 18.3666 29.8599 18.3043 29.159C18.242 28.4607 17.6263 27.9443 16.9255 28.0054L16.9267 28.0066ZM7.99744 19.1548H3.68288C3.66635 19.1548 3.64981 19.1548 3.632 19.1548C3.25168 17.949 3.04689 16.6668 3.04689 15.3376C3.04689 14.0084 3.25168 12.7262 3.632 11.5204C3.64854 11.5204 3.66507 11.5204 3.68288 11.5204H7.99744C7.68581 12.7351 7.49882 14.0122 7.49882 15.3363C7.49882 16.6605 7.68453 17.9376 7.99744 19.1523V19.1548ZM11.662 8.97893C12.9607 6.33701 14.7339 4.24204 15.7692 3.14304C16.8059 4.24077 18.5791 6.33192 19.8777 8.97893H11.662ZM26.7795 8.97893H22.6736C21.6674 6.57996 20.2721 4.54223 19.0713 3.05527C22.3517 3.93931 25.1119 6.10423 26.7795 8.97893ZM12.4595 3.05527C11.2588 4.54223 9.86216 6.57996 8.8573 8.97766H4.75389C6.42018 6.10296 9.17911 3.93804 12.4595 3.05527ZM4.75389 21.6976H8.8573C9.86216 24.0965 11.2588 26.133 12.4595 27.6199C9.18038 26.7359 6.42146 24.571 4.75389 21.6976Z" fill="white"/>
</svg>
